<svg width="2136" height="2136" viewBox="0 0 2136 2136" fill="none" xmlns="http://www.w3.org/2000/svg">
<rect width="2136" height="2136" fill="#848374"/>
<path d="M1210 909.792H1124.83V1152.94H1112.06C1104.25 1145.09 1097.87 1139.73 1092.9 1136.87C1087.93 1134.02 1080.12 1132.59 1069.48 1132.59C1056.7 1132.59 1043.57 1136.16 1030.09 1143.3C1017.31 1149.73 1002.06 1157.23 984.313 1165.79C967.28 1174.36 947.053 1181.86 923.633 1188.29C900.212 1195.43 871.824 1199 838.468 1199C788.078 1199 743.367 1190.79 704.333 1174.36C665.299 1157.23 627.684 1130.45 591.489 1094.03C556.004 1058.32 526.551 1016.19 503.131 967.634C479.71 919.075 468 864.447 468 803.749C468 763.046 472.613 726.627 481.839 694.493C491.066 661.644 502.066 633.081 514.841 608.801C528.325 584.522 541.81 564.17 555.294 547.746C569.488 531.322 581.198 518.468 590.425 509.185C622.362 477.051 658.912 450.987 700.075 430.992C741.238 410.997 788.078 401 840.597 401C867.566 401 889.567 403.142 906.6 407.427C924.342 411.711 939.601 416.71 952.376 422.423C965.151 427.421 976.506 432.063 986.442 436.348C997.087 440.632 1008.8 442.774 1021.57 442.774C1035.77 442.774 1045.7 440.989 1051.38 437.419C1057.77 433.134 1063.8 427.421 1069.48 420.281H1085.45V634.509H1073.74C1070.9 615.942 1065.22 594.162 1056.7 569.169C1048.9 544.176 1036.12 520.254 1018.38 497.403C1001.35 474.552 978.28 455.271 949.182 439.561C920.794 423.851 884.244 415.996 839.532 415.996C786.304 415.996 743.367 427.421 710.72 450.272C678.783 472.409 653.589 502.044 635.136 539.177C617.394 575.596 605.329 617.013 598.941 663.43C593.263 709.846 590.425 756.619 590.425 803.749C590.425 835.883 591.844 868.017 594.683 900.152C597.522 932.286 602.135 962.635 608.522 991.199C615.619 1019.76 625.2 1046.18 637.265 1070.46C649.33 1094.74 664.944 1115.45 684.106 1132.59C705.397 1151.87 727.398 1165.44 750.109 1173.29C772.82 1180.43 802.273 1184 838.468 1184C860.469 1184 882.47 1180.43 904.471 1173.29C926.471 1165.44 945.988 1154.01 963.022 1139.02C980.764 1124.02 994.958 1105.1 1005.6 1082.25C1016.96 1058.68 1022.64 1031.19 1022.64 999.768V909.792H885.308V894.796H1210V909.792Z" fill="#EEEDEA"/>
<path d="M1608.12 1023.9H1625.92V1197.79H1608.12L1547.88 1074.56C1505.89 1054.48 1460.24 1044.44 1410.95 1044.44C1361.66 1044.44 1322.86 1056.76 1294.57 1081.41C1266.27 1106.05 1252.12 1136.18 1252.12 1171.78C1252.12 1207.38 1262.16 1233.85 1282.24 1251.19C1302.32 1268.54 1331.54 1282.23 1369.87 1292.27L1521.86 1333.35C1571.15 1345.22 1607.67 1366.21 1631.4 1396.33C1655.14 1426.46 1667 1472.56 1667 1534.63C1667 1595.79 1647.38 1644.63 1608.12 1681.14C1569.79 1716.74 1520.95 1734.54 1461.61 1734.54C1403.19 1734.54 1348.88 1719.02 1298.67 1687.99L1227.47 1724.96H1209.67V1508.61H1227.47L1300.04 1664.71C1346.6 1697.57 1397.26 1714 1452.03 1714C1506.8 1714 1550.16 1701.22 1582.11 1675.66C1614.97 1650.1 1631.4 1613.13 1631.4 1564.75C1631.4 1530.06 1620.9 1503.14 1599.91 1483.97C1579.83 1463.88 1546.05 1447.91 1498.58 1436.04L1358.92 1400.44C1310.54 1387.66 1273.57 1365.75 1248.01 1334.72C1223.36 1302.77 1211.04 1265.8 1211.04 1223.81C1211.04 1163.56 1228.38 1115.18 1263.07 1078.67C1298.67 1042.16 1344.77 1023.9 1401.37 1023.9C1457.96 1023.9 1506.34 1033.03 1546.51 1051.28L1608.12 1023.9Z" fill="#EEEDEA"/>
</svg>
