<svg width="959" height="177" viewBox="0 0 959 177" fill="none" xmlns="http://www.w3.org/2000/svg">
<path d="M925.501 122.862C924.25 122.862 922.948 122.549 921.593 121.924C920.342 121.403 919.092 120.673 917.841 119.736C916.486 118.589 915.184 116.974 913.933 114.89C912.683 112.805 911.64 110.617 910.807 108.324L898.77 121.455C898.457 121.768 898.249 121.924 898.145 121.924C897.728 121.924 897.52 121.611 897.52 120.986C897.52 120.048 897.832 119.267 898.457 118.641L910.025 105.51C909.712 104.26 909.556 103.061 909.556 101.915C908.827 101.394 907.837 100.769 906.586 100.039C905.44 99.2056 904.867 97.8508 904.867 95.975C904.867 93.7865 905.544 91.6501 906.899 89.5659C908.253 87.4816 909.4 86.4395 910.338 86.4395C911.067 86.4395 911.432 87.0648 911.432 88.3153C911.432 88.7322 911.432 89.8264 911.432 91.598C911.536 93.3697 911.64 95.1934 911.745 97.0692C911.849 98.8409 911.953 100.039 912.057 100.665C912.683 101.081 913.204 101.342 913.62 101.446C917.685 96.7566 921.958 91.9107 926.439 86.9085C930.92 81.9062 934.932 77.6335 938.475 74.0902C940.247 71.3807 942.175 69.088 944.259 67.2122C946.448 65.3364 948.949 64.3984 951.762 64.3984C953.742 64.3984 955.149 64.7632 955.983 65.4927C956.817 66.2222 957.234 67.0559 957.234 67.9938C957.234 68.9317 956.817 69.8175 955.983 70.6512C955.254 71.3807 954.159 71.7455 952.7 71.7455C950.408 71.6412 948.428 71.7455 946.76 72.0581C945.093 72.2665 943.894 72.996 943.165 74.2466C942.435 75.6013 941.602 77.8419 940.664 80.9683C939.726 84.0947 938.788 87.6379 937.85 91.598C937.016 95.5581 936.287 99.414 935.662 103.166C937.85 102.749 939.934 102.228 941.914 101.603C943.999 100.873 946.239 99.6746 948.636 98.0071C951.033 96.3397 953.795 93.8907 956.921 90.6601C957.442 90.0348 957.963 89.7222 958.484 89.7222C958.797 89.7222 958.953 89.9306 958.953 90.3475C958.953 90.5559 958.849 90.9207 958.641 91.4417C958.432 91.9628 958.015 92.6402 957.39 93.4739C956.139 95.1413 954.576 96.8087 952.7 98.4761C950.929 100.039 949.366 101.238 948.011 102.071C945.197 103.739 942.54 104.781 940.038 105.198C937.537 105.51 935.922 105.719 935.193 105.823C934.776 108.012 934.411 109.835 934.098 111.294C933.786 112.649 933.577 113.639 933.473 114.264C932.952 117.287 931.91 119.475 930.347 120.83C928.888 122.185 927.272 122.862 925.501 122.862ZM929.096 103.166C929.617 100.769 930.295 97.5903 931.128 93.6302C932.066 89.6701 933.317 85.71 934.88 81.7499C932.17 84.7721 929.148 88.0548 925.813 91.598C922.583 95.1413 919.404 98.6845 916.278 102.228C918.258 102.645 920.394 102.957 922.687 103.166C924.98 103.27 927.116 103.27 929.096 103.166ZM923.156 115.359C923.99 115.359 924.823 114.785 925.657 113.639C926.595 112.389 927.481 110.096 928.315 106.761C928.315 106.448 928.367 106.24 928.471 106.136C925.97 106.032 923.521 105.875 921.124 105.667C918.831 105.354 916.643 104.833 914.558 104.104L913.308 105.51C914.142 107.178 915.132 108.897 916.278 110.669C917.424 112.336 918.727 113.535 920.186 114.264C920.707 114.577 921.228 114.838 921.749 115.046C922.27 115.254 922.739 115.359 923.156 115.359Z" fill="#848374" fill-opacity="0.5"/>
<path d="M873.675 118.024C872.111 118.024 870.34 117.556 868.36 116.618C866.484 115.784 865.546 114.429 865.546 112.553C865.546 110.365 866.38 107.76 868.047 104.737C869.714 101.715 871.695 98.5888 873.987 95.3582C876.28 92.0233 878.468 88.8448 880.553 85.8227C882.741 82.8005 884.304 80.2473 885.242 78.163C884.617 78.4756 883.575 79.1009 882.116 80.0388C880.761 80.8725 879.406 81.7584 878.052 82.6963C876.697 83.53 875.707 84.2074 875.081 84.7284C870.6 88.0632 866.692 91.5023 863.357 95.0455C860.127 98.5888 856.844 102.653 853.509 107.238C852.676 108.489 851.79 109.792 850.852 111.146C850.018 112.501 849.132 113.804 848.194 115.054C847.778 115.575 847.048 116.097 846.006 116.618C845.068 117.139 844.182 117.399 843.349 117.399C841.994 117.399 841.316 116.67 841.316 115.211C841.316 113.96 841.942 112.032 843.192 109.427C844.547 106.822 846.214 103.852 848.194 100.517C850.175 97.1819 852.259 93.8992 854.447 90.6686C856.636 87.3338 858.616 84.3637 860.387 81.7584C862.159 79.0488 863.41 77.1209 864.139 75.9745C863.931 76.2872 863.357 76.8603 862.42 77.694C861.482 78.4235 860.544 79.2051 859.606 80.0388C858.772 80.7683 858.147 81.2894 857.73 81.602C855.75 83.4779 853.822 85.4058 851.946 87.3859C850.07 89.3659 848.194 91.346 846.319 93.326C846.11 93.5344 845.693 93.8471 845.068 94.2639C844.547 94.6808 844.078 94.8892 843.661 94.8892C843.14 94.8892 842.88 94.6287 842.88 94.1076C842.88 93.5865 843.609 92.4923 845.068 90.8249C846.527 89.1575 848.351 87.1774 850.539 84.8847C852.728 82.5921 854.968 80.2473 857.261 77.8504C859.658 75.4535 861.742 73.3171 863.514 71.4413C865.285 69.5654 866.484 68.2628 867.109 67.5333C868.151 66.1785 869.246 65.0843 870.392 64.2506C871.642 63.4169 873.101 63 874.769 63C875.707 63 876.853 63.469 878.208 64.4069C879.563 65.2406 880.24 66.2306 880.24 67.3769C880.24 67.7938 880.136 68.0543 879.927 68.1585C876.801 70.7639 873.727 73.8382 870.704 77.3814C867.787 80.9247 865.025 84.5721 862.42 88.3238C859.814 92.0754 857.417 95.5666 855.229 98.7972C857.73 95.9834 860.544 93.2218 863.67 90.5123C866.796 87.6985 869.819 85.0932 872.737 82.6963L883.835 73.6297C884.565 73.0045 885.294 72.3271 886.024 71.5976C886.858 70.8681 887.639 70.2428 888.369 69.7217C889.202 69.2007 890.088 68.9923 891.026 69.0965C892.068 69.0965 893.11 69.0965 894.152 69.0965C895.299 69.0965 896.393 69.4091 897.435 70.0344C898.582 70.6597 899.155 71.6497 899.155 73.0045C899.155 74.3592 898.79 75.4014 898.06 76.1308C897.435 76.7561 896.706 77.4856 895.872 78.3193C894.1 79.9867 891.912 82.1752 889.307 84.8847C886.805 87.5943 884.304 90.5123 881.803 93.6386C879.302 96.765 877.218 99.9435 875.55 103.174C873.883 106.301 873.049 109.218 873.049 111.928C873.049 112.241 873.049 112.553 873.049 112.866C873.049 113.179 873.101 113.491 873.206 113.804C875.394 112.97 877.791 111.615 880.396 109.74C883.106 107.76 885.815 105.571 888.525 103.174C891.234 100.777 893.736 98.3803 896.028 95.9834C898.425 93.5865 900.405 91.4502 901.968 89.5743C902.177 89.3659 902.385 89.1054 902.594 88.7927C902.906 88.4801 903.271 88.3238 903.688 88.3238C904.209 88.3238 904.47 88.6885 904.47 89.418C904.47 89.8349 904.313 90.3038 904.001 90.8249C902.021 93.4302 899.363 96.5045 896.028 100.048C892.693 103.591 889.254 106.978 885.711 110.209C882.168 113.335 878.989 115.732 876.176 117.399C875.446 117.816 874.612 118.024 873.675 118.024Z" fill="#848374" fill-opacity="0.5"/>
<path d="M808.543 114.887C802.291 114.887 799.164 111.813 799.164 105.665C799.164 103.268 799.789 100.506 801.04 97.3796C802.395 94.149 804.166 90.9184 806.355 87.6878C808.543 84.4572 810.992 81.4872 813.702 78.7776C816.411 75.9639 819.173 73.7233 821.987 72.0559C824.905 70.2843 827.614 69.3984 830.115 69.3984C830.949 69.3984 831.522 69.6069 831.835 70.0237C832.252 70.3364 832.564 70.9095 832.773 71.7432C832.981 72.1601 833.138 72.629 833.242 73.1501C833.346 73.6712 833.502 74.1922 833.711 74.7133C834.128 75.4428 834.492 76.1723 834.805 76.9018C835.118 77.6313 835.274 78.4129 835.274 79.2466C835.274 80.2887 835.013 81.2266 834.492 82.0603C833.971 82.7898 833.346 83.4672 832.616 84.0925C831.574 85.0304 830.011 86.2288 827.927 87.6878C825.843 89.0426 823.55 90.4495 821.049 91.9085C818.652 93.2632 816.307 94.4617 814.014 95.5038C811.826 96.5459 810.054 97.1712 808.7 97.3796C807.762 98.8386 806.772 100.662 805.729 102.851C804.792 104.935 804.323 106.863 804.323 108.635C804.323 109.573 804.531 110.406 804.948 111.136C805.469 111.865 806.251 112.23 807.293 112.23C808.96 112.23 811.149 111.448 813.858 109.885C816.672 108.218 819.59 106.238 822.612 103.945C825.634 101.548 828.396 99.2555 830.897 97.067C833.502 94.7743 835.43 93.0027 836.681 91.7521L841.683 86.4373C842.308 85.812 842.986 85.4993 843.715 85.4993C844.34 85.4993 844.653 85.7599 844.653 86.281C844.653 86.9062 843.767 88.2089 841.996 90.1889C840.224 92.0648 838.088 94.2012 835.587 96.5981C833.19 98.8907 830.949 101.027 828.865 103.007C826.781 104.883 825.426 106.081 824.8 106.603C822.612 108.478 820.111 110.354 817.297 112.23C814.483 114.002 811.565 114.887 808.543 114.887ZM811.357 93.3153C812.399 92.6901 813.962 91.7 816.047 90.3453C818.235 88.9905 820.476 87.4794 822.768 85.812C825.061 84.1446 826.989 82.4772 828.552 80.8098C830.22 79.1424 831.053 77.6834 831.053 76.4328C831.053 76.1202 831.001 75.8596 830.897 75.6512C830.793 75.547 830.584 75.4949 830.272 75.4949C828.917 75.4949 827.302 76.2244 825.426 77.6834C823.55 79.1424 821.674 80.914 819.798 82.9982C817.922 84.9783 816.203 86.9583 814.64 88.9384C813.181 90.8142 812.087 92.2732 811.357 93.3153Z" fill="#848374" fill-opacity="0.5"/>
<path d="M771.63 118.799C766.836 118.799 763.501 117.236 761.625 114.11C759.749 110.983 758.811 107.179 758.811 102.698C758.811 100.197 759.02 97.644 759.437 95.0386C759.853 92.3291 760.375 89.6717 761 87.0664C759.749 87.7958 758.238 88.9422 756.467 90.5054C754.695 92.0686 752.663 94.0486 750.37 96.4455C748.599 99.9888 747.035 103.428 745.681 106.763C744.326 109.993 742.815 112.963 741.147 115.673C740.835 116.09 740.418 116.35 739.897 116.454C739.376 116.559 738.855 116.611 738.333 116.611C736.145 116.611 735.051 115.621 735.051 113.641C735.051 111.348 736.197 109.16 738.49 107.075L749.745 87.0664C748.807 87.7958 747.921 88.5774 747.087 89.4111C746.254 90.2449 745.316 91.1307 744.274 92.0686C743.857 92.4854 743.388 92.6938 742.867 92.6938C742.45 92.6938 742.241 92.4854 742.241 92.0686C742.241 91.6517 742.502 91.0785 743.023 90.3491C745.42 87.3269 748.338 83.9921 751.777 80.3446C755.32 76.5929 759.176 71.5386 763.345 65.1816C764.699 63.0973 766.627 60.492 769.128 57.3656C771.63 54.2392 774.339 50.9044 777.257 47.3612C780.279 43.8179 783.301 40.4831 786.324 37.3567C789.346 34.1261 792.003 31.4166 794.296 29.2281C795.442 28.2902 796.432 27.5086 797.266 26.8833C798.1 26.258 798.725 25.8933 799.142 25.7891C800.08 25.7891 800.966 26.3101 801.799 27.3523C802.633 28.3944 803.102 29.4886 803.206 30.635C803.206 31.7813 802.789 32.5629 801.956 32.9798C800.705 34.0219 799.507 34.9598 798.36 35.7935C797.318 36.6272 796.224 37.5651 795.077 38.6073C792.264 41.1084 789.137 44.1827 785.698 47.8301C782.259 51.4776 778.768 55.3856 775.225 59.5541C771.786 63.7226 768.451 67.9433 765.22 72.216C762.094 76.3845 759.332 80.3446 756.936 84.0963C757.144 84.3047 757.352 84.4089 757.561 84.4089C757.873 84.4089 758.238 84.2526 758.655 83.9399C759.176 83.5231 759.801 83.002 760.531 82.3768C764.178 79.2504 768.138 76.0719 772.411 72.8413C776.684 69.5065 780.8 66.4843 784.76 63.7747C785.907 63.0452 787.053 62.42 788.199 61.8989C789.45 61.2736 790.753 60.961 792.107 60.961C792.941 60.961 793.723 61.1173 794.452 61.4299C795.286 61.6384 795.911 62.0552 796.328 62.6805C797.37 62.9931 798.36 63.5142 799.298 64.2437C800.34 64.9732 800.861 65.9632 800.861 67.2138C800.861 68.777 800.08 70.288 798.517 71.747C796.953 73.1018 795.599 74.196 794.452 75.0297C790.909 77.3224 786.74 79.3025 781.947 80.9699C777.257 82.5331 772.672 83.7315 768.191 84.5652C767.461 87.7958 766.784 91.1307 766.158 94.5697C765.637 97.9045 765.377 100.979 765.377 103.793C765.377 106.711 765.742 109.107 766.471 110.983C767.201 112.859 768.555 113.797 770.535 113.797C771.682 113.797 773.089 113.276 774.756 112.234C776.528 111.087 778.299 109.785 780.071 108.326C781.947 106.763 783.614 105.252 785.073 103.793C786.636 102.334 787.835 101.239 788.668 100.51C789.606 99.6761 790.961 98.4256 792.733 96.7582C794.504 95.0908 796.224 93.4233 797.891 91.7559C799.663 90.0885 800.861 88.8901 801.487 88.1606C801.591 88.0564 801.747 88.0043 801.956 88.0043C802.477 88.0043 802.737 88.369 802.737 89.0985C802.737 89.9322 802.112 91.0264 800.861 92.3812L798.204 95.3513C793.931 100.145 789.711 104.73 785.542 109.107C781.478 113.38 777.882 116.35 774.756 118.018C773.714 118.539 772.672 118.799 771.63 118.799ZM769.285 80.5009C770.431 80.2925 772.203 79.8235 774.6 79.0941C776.997 78.3646 779.446 77.4266 781.947 76.2803C784.552 75.134 786.793 73.9355 788.668 72.6849C790.648 71.3302 791.795 69.9754 792.107 68.6206C791.795 67.8911 791.222 67.5264 790.388 67.5264C789.658 67.5264 788.304 68.0996 786.324 69.2459C784.344 70.288 782.207 71.5907 779.914 73.1539C777.622 74.6129 775.485 76.0719 773.505 77.5308C771.525 78.8856 770.118 79.8756 769.285 80.5009Z" fill="#848374" fill-opacity="0.5"/>
<path d="M707.551 114.887C701.298 114.887 698.172 111.813 698.172 105.665C698.172 103.268 698.797 100.506 700.048 97.3796C701.403 94.149 703.174 90.9184 705.363 87.6878C707.551 84.4572 710 81.4872 712.71 78.7776C715.419 75.9639 718.181 73.7233 720.995 72.0559C723.913 70.2843 726.622 69.3984 729.123 69.3984C729.957 69.3984 730.53 69.6069 730.843 70.0237C731.26 70.3364 731.572 70.9095 731.781 71.7432C731.989 72.1601 732.145 72.629 732.25 73.1501C732.354 73.6712 732.51 74.1922 732.719 74.7133C733.135 75.4428 733.5 76.1723 733.813 76.9018C734.125 77.6313 734.282 78.4129 734.282 79.2466C734.282 80.2887 734.021 81.2266 733.5 82.0603C732.979 82.7898 732.354 83.4672 731.624 84.0925C730.582 85.0304 729.019 86.2288 726.935 87.6878C724.85 89.0426 722.558 90.4495 720.057 91.9085C717.66 93.2632 715.315 94.4617 713.022 95.5038C710.834 96.5459 709.062 97.1712 707.707 97.3796C706.769 98.8386 705.779 100.662 704.737 102.851C703.799 104.935 703.33 106.863 703.33 108.635C703.33 109.573 703.539 110.406 703.956 111.136C704.477 111.865 705.258 112.23 706.301 112.23C707.968 112.23 710.156 111.448 712.866 109.885C715.68 108.218 718.598 106.238 721.62 103.945C724.642 101.548 727.404 99.2555 729.905 97.067C732.51 94.7743 734.438 93.0027 735.689 91.7521L740.691 86.4373C741.316 85.812 741.993 85.4993 742.723 85.4993C743.348 85.4993 743.661 85.7599 743.661 86.281C743.661 86.9062 742.775 88.2089 741.003 90.1889C739.232 92.0648 737.095 94.2012 734.594 96.5981C732.197 98.8907 729.957 101.027 727.873 103.007C725.788 104.883 724.434 106.081 723.808 106.603C721.62 108.478 719.119 110.354 716.305 112.23C713.491 114.002 710.573 114.887 707.551 114.887ZM710.365 93.3153C711.407 92.6901 712.97 91.7 715.054 90.3453C717.243 88.9905 719.483 87.4794 721.776 85.812C724.069 84.1446 725.997 82.4772 727.56 80.8098C729.227 79.1424 730.061 77.6834 730.061 76.4328C730.061 76.1202 730.009 75.8596 729.905 75.6512C729.801 75.547 729.592 75.4949 729.279 75.4949C727.925 75.4949 726.309 76.2244 724.434 77.6834C722.558 79.1424 720.682 80.914 718.806 82.9982C716.93 84.9783 715.211 86.9583 713.648 88.9384C712.189 90.8142 711.094 92.2732 710.365 93.3153Z" fill="#848374" fill-opacity="0.5"/>
<path d="M698.324 57.3721C695.927 57.3721 694.728 56.4863 694.728 54.7147C694.728 53.4641 695.406 52.1094 696.76 50.6504C698.115 49.1914 700.095 48.1493 702.701 47.524C704.264 47.1071 705.514 46.8987 706.452 46.8987C707.494 46.7945 708.484 46.5861 709.422 46.2734C709.005 48.2535 708.12 50.3899 706.765 52.6825C705.514 54.9752 703.847 56.3821 701.763 56.9032C700.72 57.2158 699.574 57.3721 698.324 57.3721ZM673.312 119.587C671.645 119.587 670.082 118.91 668.623 117.555C667.268 116.2 666.434 114.741 666.122 113.178C666.434 111.198 667.112 108.801 668.154 105.988C669.3 103.07 670.603 100.047 672.062 96.921C673.521 93.7946 674.98 90.8766 676.439 88.1671C677.898 85.3533 679.148 83.1128 680.19 81.4453C678.21 83.217 676.074 85.197 673.781 87.3855C671.593 89.574 669.509 91.6061 667.529 93.4819C667.424 93.5862 667.164 93.7946 666.747 94.1072C666.434 94.4199 666.122 94.5762 665.809 94.5762C665.08 94.5762 664.715 94.2636 664.715 93.6383C664.715 93.1172 664.923 92.6483 665.34 92.2314C668.154 89.105 671.072 85.9786 674.094 82.8522C677.22 79.7258 680.243 76.4952 683.161 73.1604C684.098 72.0141 684.88 71.1283 685.505 70.503C686.235 69.7735 687.329 69.4087 688.788 69.4087C689.413 69.4087 690.351 69.5651 691.602 69.8777C692.957 70.0861 694.051 70.503 694.885 71.1283C695.822 71.7535 695.979 72.5351 695.353 73.473C694.624 74.6194 693.373 76.4952 691.602 79.1006C689.83 81.7059 687.798 84.6759 685.505 88.0108C683.317 91.3456 681.128 94.7325 678.94 98.1715C676.856 101.506 675.136 104.529 673.781 107.238C672.427 109.948 671.749 111.98 671.749 113.335C671.749 113.96 671.958 114.272 672.375 114.272C673 114.272 674.042 113.699 675.501 112.553C677.064 111.407 678.575 110.208 680.034 108.958C681.597 107.603 682.64 106.717 683.161 106.3C686.183 103.695 689.153 101.037 692.071 98.3279C694.989 95.5141 697.75 92.5961 700.356 89.574C700.564 89.3655 700.825 89.0529 701.137 88.6361C701.554 88.2192 701.971 88.0108 702.388 88.0108C702.909 88.0108 703.169 88.3234 703.169 88.9487C703.169 89.6782 702.909 90.4077 702.388 91.1372C701.033 92.8046 699.522 94.472 697.855 96.1394C696.187 97.7026 694.624 99.2658 693.165 100.829C690.455 103.539 687.798 106.248 685.193 108.958C682.692 111.563 680.191 114.272 677.689 117.086C677.168 117.711 676.491 118.285 675.657 118.806C674.928 119.327 674.146 119.587 673.312 119.587Z" fill="#848374" fill-opacity="0.5"/>
<path d="M641.75 118.957C639.978 118.957 638.311 118.54 636.747 117.707C635.184 116.977 633.725 115.987 632.37 114.737C630.495 112.861 628.306 110.255 625.805 106.921C623.304 103.586 620.751 99.9904 618.145 96.1345C615.644 92.1744 613.247 88.4227 610.955 84.8795C608.766 81.232 606.995 78.1577 605.64 75.6566C602.722 76.6987 599.595 78.4704 596.261 80.9715C592.926 83.3684 589.799 86.2863 586.881 89.7254C584.068 93.0602 581.775 96.5513 580.003 100.199C578.232 103.846 577.45 107.389 577.659 110.829C577.763 111.35 577.919 111.923 578.128 112.548C578.336 113.173 578.805 113.486 579.534 113.486C580.16 113.486 580.472 114.007 580.472 115.049C580.472 115.466 580.316 115.883 580.003 116.3C579.795 116.821 579.378 117.081 578.753 117.081C576.46 117.081 574.845 116.3 573.907 114.737C572.969 113.069 572.5 111.141 572.5 108.953C572.5 105.514 573.282 101.345 574.845 96.4471C576.408 91.4449 578.44 86.1821 580.941 80.6588C583.442 75.0313 586.1 69.508 588.914 64.089C591.727 58.5657 594.385 53.5113 596.886 48.926C599.387 44.3406 601.471 40.641 603.139 37.8273C604.493 35.6388 605.796 33.294 607.047 30.7929C608.401 28.1876 609.86 25.8949 611.424 23.9148C611.945 23.1853 612.83 22.7164 614.081 22.508C615.332 22.2995 616.322 22.1953 617.051 22.1953C617.885 22.1953 618.823 22.4037 619.865 22.8206C620.907 23.1332 621.48 23.8627 621.584 25.0091C621.584 25.7386 621.376 26.5202 620.959 27.3539C620.646 28.0834 620.282 28.7607 619.865 29.386C615.175 36.9936 610.381 44.549 605.483 52.0524C600.69 59.5557 596.469 67.4238 592.822 75.6566C607.516 68.6743 621.584 60.7541 635.028 51.896C648.576 42.9337 662.071 34.0235 675.515 25.1654C676.14 24.7485 676.765 24.3838 677.39 24.0712C678.12 23.7585 678.849 23.6022 679.579 23.6022C680.1 23.6022 680.569 23.7585 680.986 24.0712C681.403 24.2796 681.663 24.6443 681.767 25.1654C681.872 25.9991 680.517 27.5623 677.703 29.855C674.889 32.0435 671.19 34.6488 666.604 37.671C662.019 40.6931 657.069 43.8716 651.754 47.2065C646.439 50.5413 641.228 53.7719 636.122 56.8983C631.016 59.9204 626.534 62.63 622.679 65.0269C618.927 67.3196 616.322 68.987 614.863 70.0291C615.279 71.6965 616.165 74.3018 617.52 77.8451C618.979 81.2841 620.751 85.0879 622.835 89.2564C624.919 93.4249 627.16 97.4892 629.557 101.449C631.954 105.305 634.298 108.484 636.591 110.985C638.988 113.486 641.124 114.737 643 114.737C644.772 114.737 646.127 114.111 647.064 112.861C648.107 111.506 648.836 109.838 649.253 107.858C649.774 105.878 650.087 103.95 650.191 102.075C650.295 100.095 650.295 98.4793 650.191 97.2287C650.191 97.0203 650.139 96.8119 650.035 96.6034C650.035 96.395 650.035 96.1866 650.035 95.9782C650.035 95.2487 650.347 94.8839 650.972 94.8839C651.91 94.8839 652.692 95.4571 653.317 96.6034C654.047 97.7498 654.62 99.0003 655.037 100.355C655.558 101.71 655.818 102.752 655.818 103.482C656.027 106.087 655.454 108.588 654.099 110.985C652.848 113.278 651.129 115.153 648.94 116.612C646.856 118.176 644.459 118.957 641.75 118.957Z" fill="#848374" fill-opacity="0.5"/>
<path d="M469.702 174.765C459.906 174.765 455.008 169.503 455.008 158.977C455.008 154.496 455.946 148.973 457.822 142.407C459.176 138.03 461.208 133.132 463.918 127.713C466.523 122.294 469.546 116.667 472.985 110.831C476.528 104.995 480.227 99.1587 484.083 93.3228C488.043 87.3826 491.951 81.703 495.807 76.284C494.036 76.9092 492.056 77.5866 489.867 78.3161C487.679 79.0456 486.011 79.4103 484.865 79.4103C484.344 79.2019 483.979 78.8372 483.771 78.3161C483.666 77.6908 483.614 77.1177 483.614 76.5966C483.614 75.2418 483.927 73.887 484.552 72.5323C485.282 71.1775 486.324 70.448 487.679 70.3438C489.346 70.1354 491.43 69.927 493.931 69.7185C496.432 69.4059 498.777 69.1454 500.966 68.9369L503.311 65.8105C505.291 62.9968 507.844 59.4535 510.97 55.1808C514.201 50.9081 517.796 46.3227 521.756 41.4247C525.716 36.4225 529.937 31.4723 534.418 26.5743C538.899 21.6763 543.433 17.2473 548.018 13.2872C552.708 9.22285 557.293 5.99225 561.774 3.59535C566.255 1.19845 570.476 0 574.436 0C577.25 0 579.23 1.25056 580.376 3.75167C581.627 6.14857 582.252 8.59757 582.252 11.0987C582.252 14.3293 581.418 17.1952 579.751 19.6963C578.188 22.0932 576.155 24.3337 573.654 26.418C571.257 28.5023 568.756 30.5865 566.151 32.6708C563.546 34.755 561.253 37.0998 559.273 39.7052C557.293 42.2063 555.99 45.1243 555.365 48.4591C555.261 48.8759 555.157 49.397 555.052 50.0223C555.052 50.5433 554.792 50.3349 554.271 49.397C553.541 48.3549 553.177 47.0522 553.177 45.489C553.177 42.571 554.375 39.2362 556.772 35.4845C559.273 31.7329 562.243 27.9291 565.682 24.0732C569.225 20.2173 572.56 16.7262 575.687 13.5998C576.208 13.0787 576.781 12.4013 577.406 11.5676C578.031 10.6297 578.344 9.79602 578.344 9.06653C578.344 7.81598 577.198 7.1907 574.905 7.1907C573.029 7.1907 570.58 8.07651 567.558 9.84813C564.64 11.6198 561.409 13.9124 557.866 16.7262C554.427 19.5399 550.988 22.4579 547.549 25.4801C544.214 28.5023 541.192 31.316 538.482 33.9213C535.877 36.4225 533.949 38.2983 532.699 39.5489C528.843 43.3005 524.466 47.7817 519.568 52.9923C514.774 58.203 510.397 63.3615 506.437 68.468C508.417 68.3638 510.658 68.2074 513.159 67.999C515.66 67.6864 518.109 67.4258 520.506 67.2174C523.007 67.009 525.039 66.9048 526.602 66.9048C526.915 66.9048 527.436 66.9569 528.165 67.0611C528.895 67.1653 529.26 67.4258 529.26 67.8427C529.26 68.2595 528.739 68.5722 527.696 68.7806C526.654 68.8848 526.029 68.989 525.821 69.0932C523.736 69.4059 521.652 69.7706 519.568 70.1875C517.484 70.6043 515.399 71.0212 513.315 71.438C512.377 71.6465 510.762 72.0633 508.469 72.6886C506.281 73.2097 504.196 73.7307 502.216 74.2518C501.695 75.0855 501.174 75.9192 500.653 76.7529C500.132 77.4824 499.663 78.264 499.246 79.0977C507.166 78.8893 512.898 80.9735 516.441 85.3505C519.985 89.7274 521.756 95.4592 521.756 102.546C521.756 107.444 520.975 112.706 519.411 118.334C517.64 125.004 515.087 131.673 511.752 138.343C508.417 145.012 504.509 151.109 500.028 156.632C495.547 162.156 490.701 166.532 485.49 169.763C480.384 173.098 475.121 174.765 469.702 174.765ZM472.047 170.857C476.007 170.857 479.758 169.659 483.302 167.262C486.949 164.865 490.336 161.739 493.462 157.883C496.693 154.027 499.559 149.754 502.06 145.065C504.665 140.375 506.906 135.685 508.782 130.996C510.658 126.41 512.064 122.242 513.002 118.49C513.628 115.989 514.097 113.54 514.409 111.143C514.826 108.746 515.035 106.454 515.035 104.265C515.035 98.4292 513.732 93.4791 511.127 89.4148C508.521 85.3505 504.248 83.162 498.308 82.8494C497.37 84.0999 495.964 86.1842 494.088 89.1022C492.212 91.9159 490.075 95.1986 487.679 98.9503C485.386 102.702 483.093 106.506 480.801 110.362C478.508 114.217 476.424 117.813 474.548 121.148C472.672 124.587 471.213 127.4 470.171 129.589C469.441 131.256 468.399 133.757 467.044 137.092C465.585 140.427 464.335 144.075 463.293 148.035C462.146 151.995 461.573 155.694 461.573 159.133C461.573 162.468 462.355 165.23 463.918 167.418C465.481 169.711 468.191 170.857 472.047 170.857Z" fill="#848374" fill-opacity="0.5"/>
<path d="M439.695 118.014C436.673 118.014 434.433 116.816 432.974 114.419C431.515 111.918 430.785 109.365 430.785 106.759C430.785 103.216 431.723 99.4123 433.599 95.348C435.475 91.1795 437.715 87.2194 440.321 83.4677C443.03 79.716 445.427 76.6417 447.511 74.2448C448.032 73.6196 448.71 73.3069 449.544 73.3069C450.481 73.3069 451.419 73.6717 452.357 74.4012C454.546 72.838 457.047 71.4311 459.861 70.1805C462.779 68.93 465.592 68.3047 468.302 68.3047C472.991 68.3047 475.336 70.7016 475.336 75.4954C475.336 80.0808 474.19 84.3014 471.897 88.1573C469.709 92.0132 467.26 95.7648 464.55 99.4123C463.821 100.35 463.091 101.236 462.362 102.07C461.736 102.903 461.007 103.737 460.173 104.571C464.759 103.32 468.771 101.236 472.21 98.3181C475.649 95.4001 479.036 92.3779 482.371 89.2515C482.787 88.8347 483.152 88.522 483.465 88.3136C483.882 88.001 484.403 87.8446 485.028 87.8446C485.549 87.8446 485.81 88.2094 485.81 88.9389C485.81 89.0431 485.653 89.3036 485.341 89.7205C485.028 90.1373 484.82 90.45 484.715 90.6584C481.276 94.8269 477.004 98.7349 471.897 102.382C466.895 105.926 461.632 108.114 456.109 108.948C454.129 110.928 451.628 112.96 448.606 115.044C445.583 117.024 442.613 118.014 439.695 118.014ZM451.888 105.665C452.305 105.665 452.67 105.665 452.983 105.665C453.399 105.665 453.816 105.613 454.233 105.509C456.317 103.008 458.454 100.038 460.642 96.5985C462.935 93.1595 464.863 89.6163 466.426 85.9688C467.989 82.2171 468.771 78.8302 468.771 75.808C468.771 73.9322 467.885 72.9943 466.113 72.9943C464.342 72.9943 462.31 73.5153 460.017 74.5575C457.724 75.5996 455.796 76.6938 454.233 77.8402V78.3091C454.233 79.3513 453.399 80.8624 451.732 82.8424C450.169 84.7182 448.449 86.6462 446.573 88.6262C444.802 90.6063 443.499 92.2737 442.665 93.6285C442.353 97.0675 443.03 99.9333 444.698 102.226C446.365 104.519 448.762 105.665 451.888 105.665ZM439.852 115.357C441.832 115.357 443.76 114.627 445.636 113.168C447.616 111.709 449.283 110.355 450.638 109.104C448.137 108.896 445.844 108.062 443.76 106.603C441.78 105.04 439.956 103.32 438.289 101.444C437.976 102.07 437.559 103.268 437.038 105.04C436.517 106.811 436.256 108.583 436.256 110.355C436.256 111.709 436.517 112.908 437.038 113.95C437.559 114.888 438.497 115.357 439.852 115.357Z" fill="#848374" fill-opacity="0.5"/>
<path d="M407.457 123.859C405.581 123.859 403.966 123.234 402.611 121.984C401.361 120.733 400.371 119.222 399.641 117.45C399.016 115.574 398.703 113.803 398.703 112.135C398.703 110.468 398.912 108.853 399.328 107.29C399.745 105.622 400.318 104.007 401.048 102.444C402.403 99.4215 404.018 96.0866 405.894 92.4392C407.874 88.6875 409.958 84.8837 412.147 81.0279C414.439 77.0678 416.732 73.4724 419.025 70.2418C417.253 70.9713 415.169 71.805 412.772 72.7429C410.479 73.5766 408.968 73.9935 408.239 73.9935C407.822 73.8893 407.509 73.5766 407.301 73.0555C407.196 72.5345 407.144 72.0134 407.144 71.4924C407.144 69.3039 408.187 67.8449 410.271 67.1154C413.501 66.0733 417.826 65.1354 423.245 64.3017C427.205 59.091 431.478 53.8803 436.064 48.6697C440.753 43.459 445.495 39.3426 450.289 36.3204C451.226 35.6952 452.269 36.0078 453.415 37.2584C454.561 38.4047 455.187 39.6032 455.291 40.8537C455.291 42.0001 454.874 42.7817 454.04 43.1985C449.872 45.8038 446.016 48.7739 442.473 52.1087C438.929 55.3393 435.282 59.0389 431.53 63.2074C433.614 62.8948 435.438 62.6864 437.001 62.5821C438.565 62.4779 439.555 62.4258 439.971 62.4258C440.284 62.4258 440.805 62.4258 441.535 62.4258C442.264 62.3216 443.046 62.2695 443.879 62.2695C445.13 62.2695 446.276 62.3737 447.319 62.5821C448.465 62.7906 449.038 63.1553 449.038 63.6764C449.038 64.0932 448.569 64.458 447.631 64.7706C446.797 64.979 445.86 65.1354 444.817 65.2396C443.775 65.2396 442.994 65.2917 442.473 65.3959C439.346 65.8128 436.532 66.2296 434.031 66.6465C431.634 67.0633 429.394 67.5844 427.31 68.2096C424.913 71.1276 423.037 73.5766 421.682 75.5567C420.432 77.5367 419.337 79.3604 418.399 81.0279C417.566 82.591 416.524 84.3627 415.273 86.3427C412.563 91.5534 410.219 96.8682 408.239 102.287C406.363 107.706 405.425 112.083 405.425 115.418C405.425 115.939 405.477 116.356 405.581 116.669C405.685 116.981 405.998 117.138 406.519 117.138C407.144 117.138 407.718 116.981 408.239 116.669C408.864 116.252 409.385 115.835 409.802 115.418C411.261 114.272 412.616 112.969 413.866 111.51C415.221 109.947 416.524 108.488 417.774 107.133C420.067 104.632 422.412 102.183 424.809 99.7862C427.205 97.3893 429.55 94.9924 431.843 92.5955C432.051 92.3871 432.26 92.2308 432.468 92.1265C432.677 91.9181 432.885 91.8139 433.093 91.8139C433.823 91.8139 434.188 92.2308 434.188 93.0645C434.188 93.3771 433.979 93.8461 433.562 94.4713C432.312 96.1387 430.957 97.8062 429.498 99.4736C428.039 101.037 426.632 102.652 425.277 104.319C422.568 107.55 419.858 110.729 417.149 113.855C414.544 116.981 411.938 120.212 409.333 123.547C409.02 123.651 408.708 123.703 408.395 123.703C408.082 123.807 407.77 123.859 407.457 123.859Z" fill="#848374" fill-opacity="0.5"/>
<path d="M372.552 122.862C371.301 122.862 369.998 122.549 368.644 121.924C367.393 121.403 366.142 120.673 364.892 119.736C363.537 118.589 362.234 116.974 360.984 114.89C359.733 112.805 358.691 110.617 357.857 108.324L345.821 121.455C345.508 121.768 345.3 121.924 345.196 121.924C344.779 121.924 344.57 121.611 344.57 120.986C344.57 120.048 344.883 119.267 345.508 118.641L357.076 105.51C356.763 104.26 356.607 103.061 356.607 101.915C355.877 101.394 354.887 100.769 353.637 100.039C352.491 99.2056 351.917 97.8508 351.917 95.975C351.917 93.7865 352.595 91.6501 353.949 89.5659C355.304 87.4816 356.451 86.4395 357.389 86.4395C358.118 86.4395 358.483 87.0648 358.483 88.3153C358.483 88.7322 358.483 89.8264 358.483 91.598C358.587 93.3697 358.691 95.1934 358.795 97.0692C358.9 98.8409 359.004 100.039 359.108 100.665C359.733 101.081 360.254 101.342 360.671 101.446C364.736 96.7566 369.008 91.9107 373.489 86.9085C377.971 81.9062 381.983 77.6335 385.526 74.0902C387.298 71.3807 389.226 69.088 391.31 67.2122C393.498 65.3364 395.999 64.3984 398.813 64.3984C400.793 64.3984 402.2 64.7632 403.034 65.4927C403.868 66.2222 404.284 67.0559 404.284 67.9938C404.284 68.9317 403.868 69.8175 403.034 70.6512C402.304 71.3807 401.21 71.7455 399.751 71.7455C397.458 71.6412 395.478 71.7455 393.811 72.0581C392.144 72.2665 390.945 72.996 390.216 74.2466C389.486 75.6013 388.652 77.8419 387.715 80.9683C386.777 84.0947 385.839 87.6379 384.901 91.598C384.067 95.5581 383.338 99.414 382.712 103.166C384.901 102.749 386.985 102.228 388.965 101.603C391.049 100.873 393.29 99.6746 395.687 98.0071C398.084 96.3397 400.845 93.8907 403.972 90.6601C404.493 90.0348 405.014 89.7222 405.535 89.7222C405.848 89.7222 406.004 89.9306 406.004 90.3475C406.004 90.5559 405.9 90.9207 405.691 91.4417C405.483 91.9628 405.066 92.6402 404.441 93.4739C403.19 95.1413 401.627 96.8087 399.751 98.4761C397.98 100.039 396.416 101.238 395.062 102.071C392.248 103.739 389.59 104.781 387.089 105.198C384.588 105.51 382.973 105.719 382.243 105.823C381.826 108.012 381.462 109.835 381.149 111.294C380.836 112.649 380.628 113.639 380.524 114.264C380.003 117.287 378.961 119.475 377.397 120.83C375.938 122.185 374.323 122.862 372.552 122.862ZM376.147 103.166C376.668 100.769 377.345 97.5903 378.179 93.6302C379.117 89.6701 380.368 85.71 381.931 81.7499C379.221 84.7721 376.199 88.0548 372.864 91.598C369.634 95.1413 366.455 98.6845 363.329 102.228C365.309 102.645 367.445 102.957 369.738 103.166C372.03 103.27 374.167 103.27 376.147 103.166ZM370.207 115.359C371.04 115.359 371.874 114.785 372.708 113.639C373.646 112.389 374.532 110.096 375.365 106.761C375.365 106.448 375.417 106.24 375.522 106.136C373.02 106.032 370.571 105.875 368.175 105.667C365.882 105.354 363.693 104.833 361.609 104.104L360.359 105.51C361.192 107.178 362.182 108.897 363.329 110.669C364.475 112.336 365.778 113.535 367.237 114.264C367.758 114.577 368.279 114.838 368.8 115.046C369.321 115.254 369.79 115.359 370.207 115.359Z" fill="#848374" fill-opacity="0.5"/>
<path d="M349.445 54.5049C347.048 54.5049 345.849 53.6191 345.849 51.8475C345.849 50.597 346.527 49.2422 347.881 47.7832C349.236 46.3242 351.216 45.2821 353.822 44.6568C355.385 44.24 356.635 44.0315 357.573 44.0315C358.615 43.9273 359.605 43.7189 360.543 43.4062C360.126 45.3863 359.241 47.5227 357.886 49.8154C356.635 52.108 354.968 53.5149 352.884 54.036C351.842 54.3486 350.695 54.5049 349.445 54.5049ZM324.433 116.72C322.766 116.72 321.203 116.043 319.744 114.688C318.389 113.333 317.555 111.874 317.243 110.311C317.555 108.331 318.233 105.934 319.275 103.12C320.421 100.202 321.724 97.1802 323.183 94.0538C324.642 90.9274 326.101 88.0094 327.56 85.2999C329.019 82.4861 330.269 80.2456 331.312 78.5782C329.332 80.3498 327.195 82.3298 324.902 84.5183C322.714 86.7068 320.63 88.7389 318.65 90.6148C318.545 90.719 318.285 90.9274 317.868 91.24C317.555 91.5527 317.243 91.709 316.93 91.709C316.201 91.709 315.836 91.3964 315.836 90.7711C315.836 90.25 316.044 89.7811 316.461 89.3642C319.275 86.2378 322.193 83.1114 325.215 79.985C328.341 76.8586 331.364 73.628 334.282 70.2932C335.22 69.1469 336.001 68.2611 336.626 67.6358C337.356 66.9063 338.45 66.5416 339.909 66.5416C340.534 66.5416 341.472 66.6979 342.723 67.0105C344.078 67.2189 345.172 67.6358 346.006 68.2611C346.944 68.8863 347.1 69.6679 346.475 70.6059C345.745 71.7522 344.495 73.628 342.723 76.2334C340.951 78.8387 338.919 81.8088 336.626 85.1436C334.438 88.4784 332.249 91.8653 330.061 95.3044C327.977 98.6392 326.257 101.661 324.902 104.371C323.548 107.08 322.87 109.113 322.87 110.467C322.87 111.093 323.079 111.405 323.496 111.405C324.121 111.405 325.163 110.832 326.622 109.686C328.185 108.539 329.696 107.341 331.155 106.09C332.718 104.736 333.761 103.85 334.282 103.433C337.304 100.828 340.274 98.1702 343.192 95.4607C346.11 92.6469 348.871 89.729 351.477 86.7068C351.685 86.4983 351.946 86.1857 352.258 85.7689C352.675 85.352 353.092 85.1436 353.509 85.1436C354.03 85.1436 354.291 85.4562 354.291 86.0815C354.291 86.811 354.03 87.5405 353.509 88.27C352.154 89.9374 350.643 91.6048 348.976 93.2722C347.308 94.8354 345.745 96.3986 344.286 97.9618C341.577 100.671 338.919 103.381 336.314 106.09C333.813 108.696 331.312 111.405 328.81 114.219C328.289 114.844 327.612 115.417 326.778 115.939C326.049 116.46 325.267 116.72 324.433 116.72Z" fill="#848374" fill-opacity="0.5"/>
<path d="M290.371 124.212C288.704 124.212 286.932 123.378 285.057 121.711C283.285 119.939 282.399 118.22 282.399 116.552C282.399 114.468 283.129 112.123 284.588 109.518C286.047 106.809 287.766 104.203 289.746 101.702C291.726 99.201 293.446 97.0646 294.905 95.293C296.364 93.4172 297.093 92.1666 297.093 91.5413V91.2287C296.155 90.395 295.27 89.6134 294.436 88.8839C293.602 88.0502 292.456 87.6333 290.997 87.6333C289.955 87.6333 288.6 88.2586 286.932 89.5092C285.369 90.7597 283.754 92.2187 282.087 93.8861C280.419 95.5535 278.908 97.1167 277.553 98.5757C276.199 100.035 275.208 101.025 274.583 101.546C274.166 101.963 273.75 102.223 273.333 102.327C273.02 102.432 272.759 102.484 272.551 102.484C272.134 102.484 271.926 102.275 271.926 101.858C271.926 101.442 272.134 101.025 272.551 100.608C274.218 98.4194 276.146 96.1788 278.335 93.8861C280.523 91.5934 282.503 89.5092 284.275 87.6333C286.047 85.6533 287.089 84.2464 287.401 83.4127C288.235 81.0158 289.069 78.8795 289.903 77.0036C290.84 75.1278 292.299 73.3562 294.279 71.6888C295.113 70.855 296.103 70.1777 297.25 69.6566C298.396 69.1355 299.542 68.875 300.689 68.875C301.731 68.875 302.564 69.1876 303.19 69.8129C303.919 70.334 304.284 71.1677 304.284 72.314C304.284 73.5646 303.711 74.8151 302.564 76.0657C301.522 77.3163 300.272 78.5147 298.813 79.661C297.354 80.7032 296.051 81.6411 294.905 82.4748C293.863 83.3085 293.394 83.9859 293.498 84.507C294.123 84.9238 295.322 85.4449 297.093 86.0701C298.969 86.6954 300.272 87.0081 301.001 87.0081C301.835 87.0081 302.617 86.8517 303.346 86.5391C304.076 86.2265 304.805 86.0701 305.535 86.0701C306.577 86.0701 307.619 86.3828 308.661 87.0081C309.703 87.6334 310.224 88.5713 310.224 89.8218C310.224 90.864 309.807 91.854 308.974 92.7919C308.244 93.6256 307.462 94.3551 306.629 94.9804C305.378 95.9183 303.711 97.3252 301.627 99.201C299.542 101.077 297.406 103.161 295.217 105.454C293.133 107.746 291.309 110.039 289.746 112.332C288.287 114.52 287.558 116.448 287.558 118.116C287.558 118.533 287.662 118.949 287.87 119.366C287.975 119.47 288.183 119.523 288.496 119.523C290.58 119.523 292.925 118.585 295.53 116.709C298.135 114.833 300.741 112.54 303.346 109.831C306.056 107.121 308.557 104.464 310.849 101.858C313.246 99.1489 315.278 97.0646 316.946 95.6056C317.154 95.3972 317.415 95.1888 317.727 94.9804C318.04 94.7719 318.353 94.6677 318.665 94.6677C319.186 94.6677 319.447 95.0325 319.447 95.762C319.447 96.1788 318.717 97.221 317.258 98.8884C315.904 100.556 314.132 102.536 311.944 104.828C309.755 107.121 307.462 109.466 305.066 111.863C302.773 114.26 300.636 116.396 298.656 118.272C296.676 120.044 295.27 121.294 294.436 122.024C293.289 122.962 292.456 123.535 291.935 123.743C291.414 124.056 290.893 124.212 290.371 124.212Z" fill="#848374" fill-opacity="0.5"/>
<path d="M256.593 118.957C254.822 118.957 253.154 118.54 251.591 117.707C250.028 116.977 248.569 115.987 247.214 114.737C245.338 112.861 243.15 110.255 240.649 106.921C238.148 103.586 235.594 99.9904 232.989 96.1345C230.488 92.1744 228.091 88.4227 225.798 84.8795C223.61 81.232 221.838 78.1577 220.483 75.6566C217.566 76.6987 214.439 78.4704 211.104 80.9715C207.77 83.3684 204.643 86.2863 201.725 89.7254C198.911 93.0602 196.619 96.5513 194.847 100.199C193.075 103.846 192.294 107.389 192.502 110.829C192.607 111.35 192.763 111.923 192.971 112.548C193.18 113.173 193.649 113.486 194.378 113.486C195.003 113.486 195.316 114.007 195.316 115.049C195.316 115.466 195.16 115.883 194.847 116.3C194.639 116.821 194.222 117.081 193.597 117.081C191.304 117.081 189.689 116.3 188.751 114.737C187.813 113.069 187.344 111.141 187.344 108.953C187.344 105.514 188.125 101.345 189.689 96.4471C191.252 91.4449 193.284 86.1821 195.785 80.6588C198.286 75.0313 200.944 69.508 203.757 64.089C206.571 58.5657 209.228 53.5113 211.73 48.926C214.231 44.3406 216.315 40.641 217.982 37.8273C219.337 35.6388 220.64 33.294 221.89 30.7929C223.245 28.1876 224.704 25.8949 226.267 23.9148C226.788 23.1853 227.674 22.7164 228.925 22.508C230.175 22.2995 231.165 22.1953 231.895 22.1953C232.729 22.1953 233.666 22.4037 234.709 22.8206C235.751 23.1332 236.324 23.8627 236.428 25.0091C236.428 25.7386 236.22 26.5202 235.803 27.3539C235.49 28.0834 235.125 28.7607 234.709 29.386C230.019 36.9936 225.225 44.549 220.327 52.0524C215.533 59.5557 211.313 67.4238 207.665 75.6566C222.359 68.6743 236.428 60.7541 249.872 51.896C263.419 42.9337 276.915 34.0235 290.358 25.1654C290.984 24.7485 291.609 24.3838 292.234 24.0712C292.964 23.7585 293.693 23.6022 294.423 23.6022C294.944 23.6022 295.413 23.7585 295.83 24.0712C296.246 24.2796 296.507 24.6443 296.611 25.1654C296.715 25.9991 295.361 27.5623 292.547 29.855C289.733 32.0435 286.034 34.6488 281.448 37.671C276.863 40.6931 271.913 43.8716 266.598 47.2065C261.283 50.5413 256.072 53.7719 250.966 56.8983C245.859 59.9204 241.378 62.63 237.522 65.0269C233.771 67.3196 231.165 68.987 229.706 70.0291C230.123 71.6965 231.009 74.3018 232.364 77.8451C233.823 81.2841 235.594 85.0879 237.679 89.2564C239.763 93.4249 242.003 97.4892 244.4 101.449C246.797 105.305 249.142 108.484 251.435 110.985C253.832 113.486 255.968 114.737 257.844 114.737C259.616 114.737 260.97 114.111 261.908 112.861C262.95 111.506 263.68 109.838 264.097 107.858C264.618 105.878 264.93 103.95 265.035 102.075C265.139 100.095 265.139 98.4793 265.035 97.2287C265.035 97.0203 264.982 96.8119 264.878 96.6034C264.878 96.395 264.878 96.1866 264.878 95.9782C264.878 95.2487 265.191 94.8839 265.816 94.8839C266.754 94.8839 267.536 95.4571 268.161 96.6034C268.89 97.7498 269.464 99.0003 269.88 100.355C270.402 101.71 270.662 102.752 270.662 103.482C270.87 106.087 270.297 108.588 268.943 110.985C267.692 113.278 265.972 115.153 263.784 116.612C261.7 118.176 259.303 118.957 256.593 118.957Z" fill="#848374" fill-opacity="0.5"/>
<path d="M70.011 176.165C65.2172 176.165 62.8203 173.768 62.8203 168.974C62.8203 168.453 62.8724 167.932 62.9766 167.411C62.9766 166.89 63.0287 166.369 63.1329 165.848C63.9667 162.096 65.7383 158.501 68.4478 155.062C71.1574 151.623 74.3359 148.392 77.9833 145.37C81.6308 142.452 85.3303 139.69 89.082 137.085C92.9379 134.584 96.3769 132.395 99.3991 130.519C101.171 129.373 103.411 127.966 106.121 126.299C108.935 124.631 111.905 122.808 115.031 120.828C118.157 118.952 121.128 117.18 123.941 115.513C125.088 112.595 125.869 109.364 126.286 105.821C126.807 102.173 127.068 98.7865 127.068 95.6601V94.4096C125.817 96.2854 123.993 98.4739 121.596 100.975C119.2 103.476 116.49 105.925 113.468 108.322C110.446 110.615 107.476 112.543 104.558 114.106C101.64 115.669 98.9822 116.451 96.5853 116.451C94.9179 116.451 93.7716 115.93 93.1463 114.887C92.6252 113.845 92.3647 112.647 92.3647 111.292C92.3647 107.645 93.1463 103.893 94.7095 100.037C96.2727 96.1812 98.0443 92.638 100.024 89.4073C102.004 86.0725 103.776 83.3109 105.339 81.1224C106.902 78.8297 107.684 77.5271 107.684 77.2144C107.684 77.1102 107.58 77.0581 107.371 77.0581C106.955 77.0581 106.486 77.0581 105.965 77.0581C105.548 77.0581 105.496 76.7455 105.808 76.1202C107.267 74.3486 109.091 72.7854 111.279 71.4306C113.468 70.0758 115.552 69.3984 117.532 69.3984C118.262 69.3984 119.095 69.7111 120.033 70.3364C121.075 70.8574 121.596 71.5348 121.596 72.3685C121.596 72.8896 121.284 73.4627 120.659 74.088C119.929 74.8175 119.043 75.6512 118.001 76.5891C117.063 77.5271 115.761 78.986 114.093 80.9661C113.155 82.0082 111.853 83.7277 110.185 86.1246C108.518 88.4173 106.798 91.0748 105.027 94.0969C103.255 97.0149 101.744 99.9329 100.493 102.851C99.347 105.665 98.7738 108.114 98.7738 110.198C98.7738 110.51 98.7738 110.875 98.7738 111.292C98.878 111.605 99.1386 111.917 99.5554 112.23C101.014 112.334 102.838 111.709 105.027 110.354C107.215 108.895 109.508 107.071 111.905 104.883C114.406 102.59 116.751 100.193 118.939 97.6923C121.232 95.087 123.212 92.6901 124.879 90.5016C126.651 88.2089 127.901 86.3852 128.631 85.0304C129.777 82.9461 131.497 81.904 133.789 81.904C135.457 81.904 136.395 82.2687 136.603 82.9982C136.916 83.7277 137.072 84.7178 137.072 85.9683C137.072 90.0326 136.812 93.628 136.291 96.7544C135.874 99.7765 135.04 103.216 133.789 107.071C140.459 101.34 146.816 95.2954 152.86 88.9384C152.965 88.73 153.173 88.4694 153.486 88.1568C153.903 87.8441 154.215 87.6878 154.424 87.6878C155.049 87.6878 155.362 88.0005 155.362 88.6257C155.362 89.4595 155.049 90.2932 154.424 91.1269C153.486 92.2732 152.444 93.4195 151.297 94.5659C150.255 95.7122 149.213 96.8586 148.171 98.0049C145.67 100.714 143.116 103.424 140.511 106.134C137.906 108.739 135.144 111.24 132.226 113.637C127.432 126.247 121.128 137.293 113.312 146.777C105.6 156.364 95.8559 164.545 84.0798 171.319C82.0997 172.465 79.8591 173.559 77.358 174.602C74.8569 175.644 72.4079 176.165 70.011 176.165ZM73.6064 172.257C76.4201 172.257 79.4944 171.215 82.8292 169.13C86.0598 167.15 89.2904 164.649 92.521 161.627C95.7516 158.605 98.6696 155.583 101.275 152.56C103.984 149.642 106.121 147.193 107.684 145.213C109.456 142.817 111.175 140.42 112.843 138.023C114.51 135.73 116.073 133.333 117.532 130.832C119.721 127.185 121.544 123.641 123.003 120.202C123.108 119.89 123.003 119.681 122.691 119.577C122.482 119.577 122.378 119.577 122.378 119.577C119.147 121.87 115.865 124.11 112.53 126.299C109.299 128.591 106.017 130.832 102.682 133.021C101.014 134.063 98.7738 135.574 95.9601 137.554C93.1463 139.638 90.1241 141.931 86.8935 144.432C83.6629 147.037 80.5886 149.695 77.6707 152.404C74.7527 155.218 72.3558 157.927 70.48 160.533C68.6041 163.242 67.6662 165.639 67.6662 167.723C67.6662 169.391 68.3436 170.537 69.6984 171.162C70.9489 171.892 72.2516 172.257 73.6064 172.257Z" fill="#848374" fill-opacity="0.5"/>
<path d="M24.7159 118.794C23.6737 118.794 22.6316 118.742 21.5895 118.637C20.5473 118.637 19.5573 118.585 18.6194 118.481H18.3068C17.5773 118.377 16.2225 118.221 14.2425 118.012C12.3666 117.908 10.3345 117.699 8.14599 117.387C5.95751 117.074 4.08168 116.605 2.51848 115.98C0.955286 115.355 0.121582 114.573 0.0173689 113.635C-0.0868444 113.114 0.277902 112.854 1.11161 112.854C1.94531 112.749 2.46638 112.697 2.6748 112.697C5.38434 112.697 8.04177 112.854 10.6471 113.166L14.8677 113.635C14.7635 113.01 14.6072 112.437 14.3988 111.916C14.2946 111.395 14.2425 110.926 14.2425 110.509C14.2425 110.092 14.1903 109.727 14.0861 109.415C14.0861 108.998 14.0861 108.581 14.0861 108.164C14.0861 103.683 15.0762 98.5764 17.0562 92.8447C19.0363 87.0087 21.5895 80.9644 24.7159 74.7116C27.9465 68.4588 31.3855 62.3623 35.033 56.4222C38.6804 50.3778 42.2758 44.9588 45.819 40.165C49.3623 35.2669 52.4365 31.3589 55.0419 28.441C53.6871 28.3368 52.3323 28.2847 50.9776 28.2847C49.727 28.2847 48.3722 28.2847 46.9132 28.2847C44.2037 28.2847 40.9731 28.3889 37.2214 28.5973C33.4698 28.7015 30.2913 29.1705 27.6859 30.0042C26.6438 30.3168 25.6017 30.6295 24.5595 30.9421C23.5174 31.2547 22.4232 31.4111 21.2768 31.4111C21.1726 31.4111 20.86 31.4111 20.3389 31.4111C19.8179 31.3068 19.5573 31.0984 19.5573 30.7858C19.3489 28.8057 20.2868 27.1904 22.3711 25.9399C24.4553 24.5851 26.9564 23.543 29.8744 22.8135C32.8966 21.9798 35.7624 21.4066 38.472 21.094C41.2857 20.7813 43.3179 20.625 44.5685 20.625C47.5906 20.625 51.5507 20.8334 56.4487 21.2503C61.451 21.6671 66.6616 22.3966 72.0807 23.4388C77.604 24.4809 82.8667 25.9399 87.869 27.8157C92.8712 29.5873 96.9876 31.9321 100.218 34.8501C103.553 37.6638 105.429 41.0508 105.846 45.0109C106.158 48.1372 105.325 50.8989 103.345 53.2958C101.365 55.5885 98.7592 57.6206 95.5286 59.3923C92.298 61.1639 88.8069 62.7271 85.0552 64.0818C81.3036 65.4366 77.7082 66.6351 74.2692 67.6772C70.9344 68.7193 68.2248 69.7615 66.1406 70.8036C69.4754 71.6373 72.706 73.1484 75.8324 75.3369C78.9588 77.4211 81.5641 79.9743 83.6484 82.9965C85.8368 85.9145 87.0874 89.1451 87.4 92.6883C87.7127 95.8147 86.5142 98.7327 83.8047 101.442C81.1993 104.152 77.604 106.601 73.0186 108.789C68.5375 110.874 63.4831 112.697 57.8556 114.26C52.2281 115.719 46.4964 116.814 40.6605 117.543C34.9287 118.377 29.6139 118.794 24.7159 118.794ZM36.2835 70.491H40.0352C41.911 70.491 44.6727 70.1783 48.3201 69.553C52.0718 68.8235 56.2403 67.8335 60.8257 66.583C65.5153 65.3324 70.257 63.8734 75.0508 62.206C79.8446 60.5386 84.2215 58.767 88.1816 56.8911C92.2459 54.9111 95.4765 52.8789 97.8734 50.7947C100.375 48.6062 101.625 46.4177 101.625 44.2293C101.625 42.0408 100.479 40.1128 98.1861 38.4454C95.9976 36.778 93.1317 35.3712 89.5885 34.2248C86.1495 32.9743 82.502 31.9842 78.6461 31.2547C74.7902 30.421 71.1949 29.8479 67.8601 29.5352C64.6295 29.1184 62.1284 28.9099 60.3567 28.9099C60.7736 29.431 61.1904 30.0042 61.6073 30.6295C62.0241 31.2547 62.2847 31.9321 62.3889 32.6616V32.9742C62.3889 33.808 62.1284 34.4853 61.6073 35.0064C57.1261 40.7381 52.5407 46.4177 47.8512 52.0452C43.1616 57.6727 39.3057 63.8213 36.2835 70.491ZM19.2447 113.791C24.0385 113.791 29.197 113.375 34.7203 112.541C40.2436 111.707 45.7148 110.561 51.1339 109.102C56.553 107.539 61.451 105.767 65.8279 103.787C70.3091 101.703 73.8523 99.4622 76.4576 97.0653C79.1672 94.5642 80.522 91.9067 80.522 89.093C80.522 86.5919 79.6362 84.4034 77.8645 82.5276C76.1971 80.6517 74.0607 79.1406 71.4554 77.9943C68.8501 76.7437 66.1927 75.8579 63.4831 75.3369C60.7736 74.7116 58.4288 74.3989 56.4487 74.3989C54.2603 74.3989 51.9676 74.7637 49.5707 75.4932C47.278 76.1185 45.1416 76.7958 43.1616 77.5253C41.1815 78.2548 39.5662 78.6196 38.3157 78.6196C37.2735 78.6196 36.3877 78.0464 35.6582 76.9001C34.9287 75.6495 34.564 74.6074 34.564 73.7737C32.1671 77.5253 29.7702 81.5896 27.3733 85.9666C24.9764 90.2393 22.9963 94.7205 21.4332 99.4101C19.87 104.1 19.1405 108.893 19.2447 113.791Z" fill="#848374" fill-opacity="0.5"/>
</svg>
