<svg width="1624" height="829" viewBox="0 0 1624 829" fill="none" xmlns="http://www.w3.org/2000/svg">
<path d="M1241 392.518H1270.38V209.741H1241V206H1297.65L1387.12 351.634H1387.65V209.741H1358.26V206H1421V209.741H1391.62V400H1386.32L1274.88 220.697H1274.35V392.518H1303.74V396.259H1241V392.518Z" fill="white"/>
<path d="M1199.3 347.164C1199.3 354.458 1198.49 361.307 1196.89 367.711C1195.46 374.116 1192.96 379.719 1189.39 384.523C1186 389.326 1181.46 393.151 1175.75 395.997C1170.04 398.666 1163.08 400 1154.87 400C1149.16 400 1143.9 399.288 1139.08 397.865C1134.27 396.62 1130.08 394.752 1126.51 392.261C1122.94 389.593 1120.08 386.48 1117.94 382.922C1115.98 379.364 1115 375.361 1115 370.913C1115 365.576 1116.52 361.307 1119.55 358.105C1122.58 354.724 1127.04 353.034 1132.93 353.034C1135.61 353.034 1137.84 353.479 1139.62 354.369C1141.4 355.258 1142.74 356.326 1143.63 357.571C1144.7 358.638 1145.42 359.884 1145.77 361.307C1146.31 362.73 1146.58 363.975 1146.58 365.043C1146.58 367 1146.31 368.69 1145.77 370.113C1145.24 371.536 1144.7 372.959 1144.17 374.382C1143.63 375.806 1143.1 377.318 1142.56 378.919C1142.03 380.52 1141.76 382.566 1141.76 385.056C1141.76 389.148 1142.92 392.083 1145.24 393.862C1147.74 395.464 1151.04 396.264 1155.14 396.264C1160.31 396.264 1164.51 394.396 1167.72 390.66C1170.93 386.746 1172.54 379.986 1172.54 370.38V209.736H1142.83V206H1229V209.736H1199.3V347.164Z" fill="white"/>
<path d="M1017 392.264H1046.99V209.736H1017V206H1104V209.736H1074.01V392.264H1104V396H1017V392.264Z" fill="white"/>
<path d="M856.326 392.218C859.352 392.573 862.822 392.838 866.737 393.015C870.831 393.192 875.28 393.281 880.085 393.281C886.136 393.281 892.097 393.015 897.97 392.484C904.021 391.776 909.716 390.447 915.055 388.499C920.572 386.374 925.644 383.452 930.271 379.733C935.076 375.837 939.347 370.79 943.085 364.591C948.78 355.028 952.695 345.287 954.83 335.37C957.144 325.275 958.301 314.295 958.301 302.43C958.301 288.439 956.966 275.777 954.297 264.442C951.627 252.931 947.178 243.191 940.949 235.221C934.898 227.075 926.801 220.788 916.657 216.36C906.513 211.933 893.966 209.719 879.017 209.719C874.568 209.719 870.475 209.808 866.737 209.985C863.178 210.162 859.708 210.339 856.326 210.516V392.218ZM800 392.218H829.631V210.516H800V206.797H849.652C852.144 206.797 854.636 206.797 857.127 206.797C859.619 206.62 862.11 206.443 864.602 206.266C867.093 206.266 869.585 206.266 872.076 206.266C874.568 206.089 877.059 206 879.551 206C884.89 206 889.606 206.089 893.699 206.266C897.97 206.443 901.886 206.797 905.445 207.328C909.182 207.682 912.652 208.302 915.856 209.188C919.237 209.896 922.797 210.87 926.534 212.11C937.39 215.652 946.733 220.433 954.564 226.455C962.572 232.299 969.068 239.117 974.051 246.91C979.212 254.702 982.949 263.203 985.263 272.412C987.754 281.621 989 291.273 989 301.367C989 313.056 987.576 323.593 984.729 332.979C981.881 342.188 977.966 350.423 972.983 357.684C968 364.768 962.127 370.967 955.364 376.28C948.78 381.415 941.661 385.577 934.008 388.765C929.737 390.713 925.644 392.218 921.729 393.281C917.991 394.344 914.076 395.14 909.983 395.672C906.068 396.203 901.708 396.557 896.903 396.734C892.097 396.911 886.58 397 880.352 397C877.682 397 874.835 396.911 871.809 396.734C868.784 396.734 865.758 396.646 862.733 396.469C859.708 396.292 856.682 396.115 853.657 395.937C850.809 395.937 848.051 395.937 845.381 395.937H800V392.218Z" fill="white"/>
<path d="M664.185 293.144H688.683C693.654 293.144 698.18 292.52 702.263 291.273C706.346 290.025 709.808 287.887 712.648 284.857C715.666 281.65 717.974 277.373 719.572 272.026C721.169 266.68 721.968 259.908 721.968 251.711C721.968 242.444 720.726 235.048 718.24 229.524C715.932 223.821 712.826 219.544 708.92 216.693C705.192 213.841 700.932 211.97 696.139 211.079C691.523 210.188 686.908 209.742 682.292 209.742C679.097 209.742 675.813 209.831 672.44 210.01C669.245 210.01 666.493 210.188 664.185 210.544V293.144ZM608 393.386H637.557V210.544H608V206.802H658.593C660.724 206.802 662.854 206.802 664.984 206.802C667.114 206.624 669.245 206.446 671.375 206.267C673.505 206.267 675.635 206.267 677.766 206.267C679.896 206.089 682.026 206 684.156 206C694.63 206 703.861 206.624 711.85 207.871C719.838 208.94 727.294 212.237 734.217 217.762C740.43 222.573 744.78 228.009 747.265 234.068C749.928 240.127 751.259 245.83 751.259 251.176C751.259 253.849 750.727 257.324 749.661 261.601C748.774 265.7 746.644 269.977 743.271 274.432C740.075 278.709 735.371 282.719 729.158 286.461C722.945 290.025 714.69 292.431 704.394 293.679V294.213C707.234 294.57 711.051 295.283 715.844 296.352C720.814 297.243 725.785 298.847 730.755 301.163C735.904 303.48 740.608 306.599 744.868 310.519C749.129 314.262 752.147 319.163 753.922 325.222C754.987 328.786 755.697 332.885 756.052 337.518C756.585 341.973 756.94 346.607 757.117 351.418C757.472 356.23 757.739 360.863 757.916 365.319C758.271 369.774 758.804 373.516 759.514 376.546C760.579 381.179 762.265 385.367 764.573 389.109C766.881 392.852 770.609 394.723 775.757 394.723C778.065 394.723 780.461 394.277 782.946 393.386C785.432 392.495 787.651 391.07 789.603 389.109L792 392.05C791.112 392.763 790.047 393.565 788.805 394.456C787.74 395.169 786.319 395.881 784.544 396.594C782.769 397.307 780.55 397.842 777.887 398.198C775.402 398.733 772.295 399 768.567 399C761.466 399 755.52 398.109 750.727 396.327C746.111 394.545 742.383 391.961 739.543 388.575C736.702 385.011 734.572 380.734 733.152 375.744C731.909 370.576 731.022 364.606 730.489 357.834L728.625 333.508C727.915 324.598 726.14 317.648 723.3 312.658C720.459 307.668 717.086 304.015 713.181 301.698C709.453 299.381 705.548 298.045 701.465 297.688C697.382 297.154 693.831 296.886 690.813 296.886H664.185V393.386H693.742V397.129H608V393.386Z" fill="white"/>
<path d="M428.402 301.133C428.402 317.079 429.46 330.988 431.575 342.859C433.69 354.73 437.215 364.652 442.149 372.626C447.084 380.599 453.429 386.534 461.184 390.432C468.939 394.33 478.544 396.279 490 396.279C501.28 396.279 510.797 394.33 518.552 390.432C526.483 386.534 532.916 380.599 537.851 372.626C542.785 364.652 546.31 354.73 548.425 342.859C550.54 330.988 551.598 317.079 551.598 301.133C551.598 288.907 550.805 277.125 549.218 265.785C547.632 254.268 544.548 244.081 539.966 235.221C535.559 226.185 529.303 219.009 521.195 213.694C513.264 208.379 502.866 205.721 490 205.721C477.134 205.721 466.648 208.379 458.54 213.694C450.609 219.009 444.352 226.185 439.77 235.221C435.364 244.081 432.368 254.268 430.782 265.785C429.195 277.125 428.402 288.907 428.402 301.133ZM398 301.133C398 286.958 400.732 273.847 406.195 261.799C411.835 249.75 418.973 239.297 427.609 230.438C436.421 221.579 446.291 214.668 457.218 209.707C468.146 204.569 479.073 202 490 202C501.632 202 512.912 204.569 523.839 209.707C534.943 214.668 544.812 221.579 553.448 230.438C562.084 239.297 568.958 249.75 574.069 261.799C579.356 273.847 582 286.958 582 301.133C582 313.536 579.621 325.672 574.862 337.544C570.103 349.415 563.582 359.957 555.299 369.17C547.015 378.384 537.234 385.826 525.954 391.495C514.851 397.165 502.866 400 490 400C476.782 400 464.533 397.254 453.253 391.761C441.973 386.268 432.192 379.004 423.908 369.968C415.801 360.754 409.456 350.212 404.874 338.341C400.291 326.293 398 313.89 398 301.133Z" fill="white"/>
<path d="M373 255.671H330.188V377.855H323.766C319.842 373.908 316.631 371.217 314.133 369.781C311.636 368.346 307.712 367.628 302.36 367.628C295.938 367.628 289.338 369.422 282.56 373.011C276.138 376.24 268.467 380.008 259.548 384.314C250.986 388.62 240.818 392.388 229.044 395.617C217.271 399.206 203 401 186.232 401C160.902 401 138.426 396.873 118.803 388.62C99.1813 380.008 80.2726 366.552 62.0775 348.251C44.2391 330.309 29.4333 309.138 17.66 284.737C5.88666 260.336 0 232.885 0 202.384C0 181.93 2.31898 163.63 6.95695 147.482C11.5949 130.975 17.1248 116.622 23.5466 104.421C30.3252 92.221 37.1038 81.9942 43.8824 73.7409C51.0177 65.4877 56.9043 59.0286 61.5423 54.3638C77.5968 38.2161 95.9703 25.1186 116.663 15.0711C137.355 5.02371 160.902 0 187.303 0C200.86 0 211.92 1.0765 220.482 3.22951C229.401 5.38253 237.072 7.89439 243.494 10.7651C249.915 13.277 255.624 15.6094 260.618 17.7624C265.97 19.9154 271.857 20.9919 278.278 20.9919C285.414 20.9919 290.408 20.0948 293.263 18.3007C296.473 16.1476 299.506 13.277 302.36 9.68859H310.387V117.34H304.501C303.074 108.01 300.22 97.0653 295.938 84.506C292.014 71.9467 285.592 59.9257 276.673 48.4429C268.11 36.9602 256.516 27.2716 241.888 19.3772C227.617 11.4828 209.244 7.53556 186.768 7.53556C160.01 7.53556 138.426 13.277 122.014 24.7597C105.96 35.8837 93.2946 50.7754 84.0186 69.4349C75.0995 87.7356 69.0344 108.548 65.8235 131.872C62.9694 155.197 61.5423 178.701 61.5423 202.384C61.5423 218.532 62.2559 234.679 63.6829 250.827C65.11 266.974 67.429 282.225 70.6399 296.579C74.2076 310.932 79.0239 324.209 85.0889 336.409C91.154 348.61 99.0029 359.016 108.636 367.628C119.339 377.317 130.398 384.135 141.815 388.082C153.231 391.67 168.037 393.464 186.232 393.464C197.292 393.464 208.352 391.67 219.412 388.082C230.472 384.135 240.283 378.393 248.845 370.858C257.764 363.322 264.9 353.813 270.251 342.33C275.959 330.489 278.813 316.673 278.813 300.885V255.671H209.779V248.136H373V255.671Z" fill="white"/>
<path d="M1590.5 774.862C1589.25 774.862 1587.95 774.549 1586.59 773.924C1585.34 773.403 1584.09 772.673 1582.84 771.736C1581.49 770.589 1580.18 768.974 1578.93 766.89C1577.68 764.805 1576.64 762.617 1575.81 760.324L1563.77 773.455C1563.46 773.768 1563.25 773.924 1563.14 773.924C1562.73 773.924 1562.52 773.611 1562.52 772.986C1562.52 772.048 1562.83 771.267 1563.46 770.641L1575.03 757.51C1574.71 756.26 1574.56 755.061 1574.56 753.915C1573.83 753.394 1572.84 752.769 1571.59 752.039C1570.44 751.206 1569.87 749.851 1569.87 747.975C1569.87 745.787 1570.54 743.65 1571.9 741.566C1573.25 739.482 1574.4 738.439 1575.34 738.439C1576.07 738.439 1576.43 739.065 1576.43 740.315C1576.43 740.732 1576.43 741.826 1576.43 743.598C1576.54 745.37 1576.64 747.193 1576.74 749.069C1576.85 750.841 1576.95 752.039 1577.06 752.665C1577.68 753.081 1578.2 753.342 1578.62 753.446C1582.68 748.757 1586.96 743.911 1591.44 738.908C1595.92 733.906 1599.93 729.633 1603.48 726.09C1605.25 723.381 1607.17 721.088 1609.26 719.212C1611.45 717.336 1613.95 716.398 1616.76 716.398C1618.74 716.398 1620.15 716.763 1620.98 717.493C1621.82 718.222 1622.23 719.056 1622.23 719.994C1622.23 720.932 1621.82 721.818 1620.98 722.651C1620.25 723.381 1619.16 723.745 1617.7 723.745C1615.41 723.641 1613.43 723.745 1611.76 724.058C1610.09 724.267 1608.89 724.996 1608.16 726.247C1607.44 727.601 1606.6 729.842 1605.66 732.968C1604.73 736.095 1603.79 739.638 1602.85 743.598C1602.02 747.558 1601.29 751.414 1600.66 755.166C1602.85 754.749 1604.93 754.228 1606.91 753.603C1609 752.873 1611.24 751.675 1613.64 750.007C1616.03 748.34 1618.79 745.891 1621.92 742.66C1622.44 742.035 1622.96 741.722 1623.48 741.722C1623.8 741.722 1623.95 741.931 1623.95 742.347C1623.95 742.556 1623.85 742.921 1623.64 743.442C1623.43 743.963 1623.02 744.64 1622.39 745.474C1621.14 747.141 1619.58 748.809 1617.7 750.476C1615.93 752.039 1614.37 753.238 1613.01 754.071C1610.2 755.739 1607.54 756.781 1605.04 757.198C1602.54 757.51 1600.92 757.719 1600.19 757.823C1599.78 760.012 1599.41 761.835 1599.1 763.294C1598.79 764.649 1598.58 765.639 1598.47 766.264C1597.95 769.287 1596.91 771.475 1595.35 772.83C1593.89 774.185 1592.27 774.862 1590.5 774.862ZM1594.1 755.166C1594.62 752.769 1595.29 749.59 1596.13 745.63C1597.07 741.67 1598.32 737.71 1599.88 733.75C1597.17 736.772 1594.15 740.055 1590.81 743.598C1587.58 747.141 1584.4 750.685 1581.28 754.228C1583.26 754.645 1585.39 754.957 1587.69 755.166C1589.98 755.27 1592.12 755.27 1594.1 755.166ZM1588.16 767.359C1588.99 767.359 1589.82 766.785 1590.66 765.639C1591.6 764.389 1592.48 762.096 1593.31 758.761C1593.31 758.448 1593.37 758.24 1593.47 758.136C1590.97 758.032 1588.52 757.875 1586.12 757.667C1583.83 757.354 1581.64 756.833 1579.56 756.104L1578.31 757.51C1579.14 759.178 1580.13 760.897 1581.28 762.669C1582.42 764.336 1583.73 765.535 1585.19 766.264C1585.71 766.577 1586.23 766.838 1586.75 767.046C1587.27 767.254 1587.74 767.359 1588.16 767.359Z" fill="white" fill-opacity="0.5"/>
<path d="M1538.67 770.024C1537.11 770.024 1535.34 769.556 1533.36 768.618C1531.48 767.784 1530.55 766.429 1530.55 764.553C1530.55 762.365 1531.38 759.76 1533.05 756.737C1534.71 753.715 1536.69 750.589 1538.99 747.358C1541.28 744.023 1543.47 740.845 1545.55 737.823C1547.74 734.8 1549.3 732.247 1550.24 730.163C1549.62 730.476 1548.57 731.101 1547.12 732.039C1545.76 732.873 1544.41 733.758 1543.05 734.696C1541.7 735.53 1540.71 736.207 1540.08 736.728C1535.6 740.063 1531.69 743.502 1528.36 747.046C1525.13 750.589 1521.84 754.653 1518.51 759.238C1517.68 760.489 1516.79 761.792 1515.85 763.146C1515.02 764.501 1514.13 765.804 1513.19 767.054C1512.78 767.575 1512.05 768.097 1511.01 768.618C1510.07 769.139 1509.18 769.399 1508.35 769.399C1506.99 769.399 1506.32 768.67 1506.32 767.211C1506.32 765.96 1506.94 764.032 1508.19 761.427C1509.55 758.822 1511.21 755.852 1513.19 752.517C1515.17 749.182 1517.26 745.899 1519.45 742.669C1521.64 739.334 1523.62 736.364 1525.39 733.758C1527.16 731.049 1528.41 729.121 1529.14 727.975C1528.93 728.287 1528.36 728.86 1527.42 729.694C1526.48 730.424 1525.54 731.205 1524.61 732.039C1523.77 732.768 1523.15 733.289 1522.73 733.602C1520.75 735.478 1518.82 737.406 1516.95 739.386C1515.07 741.366 1513.19 743.346 1511.32 745.326C1511.11 745.534 1510.69 745.847 1510.07 746.264C1509.55 746.681 1509.08 746.889 1508.66 746.889C1508.14 746.889 1507.88 746.629 1507.88 746.108C1507.88 745.587 1508.61 744.492 1510.07 742.825C1511.53 741.157 1513.35 739.177 1515.54 736.885C1517.73 734.592 1519.97 732.247 1522.26 729.85C1524.66 727.453 1526.74 725.317 1528.51 723.441C1530.29 721.565 1531.48 720.263 1532.11 719.533C1533.15 718.178 1534.25 717.084 1535.39 716.251C1536.64 715.417 1538.1 715 1539.77 715C1540.71 715 1541.85 715.469 1543.21 716.407C1544.56 717.241 1545.24 718.231 1545.24 719.377C1545.24 719.794 1545.14 720.054 1544.93 720.159C1541.8 722.764 1538.73 725.838 1535.7 729.381C1532.79 732.925 1530.02 736.572 1527.42 740.324C1524.81 744.075 1522.42 747.567 1520.23 750.797C1522.73 747.983 1525.54 745.222 1528.67 742.512C1531.8 739.699 1534.82 737.093 1537.74 734.696L1548.84 725.63C1549.56 725.004 1550.29 724.327 1551.02 723.598C1551.86 722.868 1552.64 722.243 1553.37 721.722C1554.2 721.201 1555.09 720.992 1556.03 721.096C1557.07 721.096 1558.11 721.096 1559.15 721.096C1560.3 721.096 1561.39 721.409 1562.44 722.034C1563.58 722.66 1564.15 723.65 1564.15 725.004C1564.15 726.359 1563.79 727.401 1563.06 728.131C1562.44 728.756 1561.71 729.486 1560.87 730.319C1559.1 731.987 1556.91 734.175 1554.31 736.885C1551.81 739.594 1549.3 742.512 1546.8 745.639C1544.3 748.765 1542.22 751.944 1540.55 755.174C1538.88 758.301 1538.05 761.218 1538.05 763.928C1538.05 764.241 1538.05 764.553 1538.05 764.866C1538.05 765.179 1538.1 765.491 1538.21 765.804C1540.39 764.97 1542.79 763.615 1545.4 761.74C1548.11 759.76 1550.82 757.571 1553.52 755.174C1556.23 752.777 1558.74 750.38 1561.03 747.983C1563.43 745.587 1565.41 743.45 1566.97 741.574C1567.18 741.366 1567.39 741.105 1567.59 740.793C1567.91 740.48 1568.27 740.324 1568.69 740.324C1569.21 740.324 1569.47 740.689 1569.47 741.418C1569.47 741.835 1569.31 742.304 1569 742.825C1567.02 745.43 1564.36 748.505 1561.03 752.048C1557.69 755.591 1554.25 758.978 1550.71 762.209C1547.17 765.335 1543.99 767.732 1541.18 769.399C1540.45 769.816 1539.61 770.024 1538.67 770.024Z" fill="white" fill-opacity="0.5"/>
<path d="M1473.54 766.887C1467.29 766.887 1464.16 763.813 1464.16 757.665C1464.16 755.268 1464.79 752.506 1466.04 749.38C1467.39 746.149 1469.17 742.918 1471.35 739.688C1473.54 736.457 1475.99 733.487 1478.7 730.778C1481.41 727.964 1484.17 725.723 1486.99 724.056C1489.9 722.284 1492.61 721.398 1495.12 721.398C1495.95 721.398 1496.52 721.607 1496.83 722.024C1497.25 722.336 1497.56 722.91 1497.77 723.743C1497.98 724.16 1498.14 724.629 1498.24 725.15C1498.35 725.671 1498.5 726.192 1498.71 726.713C1499.13 727.443 1499.49 728.172 1499.8 728.902C1500.12 729.631 1500.27 730.413 1500.27 731.247C1500.27 732.289 1500.01 733.227 1499.49 734.06C1498.97 734.79 1498.35 735.467 1497.62 736.092C1496.57 737.03 1495.01 738.229 1492.93 739.688C1490.84 741.043 1488.55 742.449 1486.05 743.908C1483.65 745.263 1481.31 746.462 1479.01 747.504C1476.83 748.546 1475.05 749.171 1473.7 749.38C1472.76 750.839 1471.77 752.662 1470.73 754.851C1469.79 756.935 1469.32 758.863 1469.32 760.635C1469.32 761.573 1469.53 762.406 1469.95 763.136C1470.47 763.865 1471.25 764.23 1472.29 764.23C1473.96 764.23 1476.15 763.448 1478.86 761.885C1481.67 760.218 1484.59 758.238 1487.61 755.945C1490.63 753.548 1493.4 751.255 1495.9 749.067C1498.5 746.774 1500.43 745.003 1501.68 743.752L1506.68 738.437C1507.31 737.812 1507.99 737.499 1508.72 737.499C1509.34 737.499 1509.65 737.76 1509.65 738.281C1509.65 738.906 1508.77 740.209 1507 742.189C1505.22 744.065 1503.09 746.201 1500.59 748.598C1498.19 750.891 1495.95 753.027 1493.86 755.007C1491.78 756.883 1490.43 758.081 1489.8 758.603C1487.61 760.478 1485.11 762.354 1482.3 764.23C1479.48 766.002 1476.57 766.887 1473.54 766.887ZM1476.36 745.315C1477.4 744.69 1478.96 743.7 1481.05 742.345C1483.24 740.99 1485.48 739.479 1487.77 737.812C1490.06 736.145 1491.99 734.477 1493.55 732.81C1495.22 731.142 1496.05 729.683 1496.05 728.433C1496.05 728.12 1496 727.86 1495.9 727.651C1495.79 727.547 1495.58 727.495 1495.27 727.495C1493.92 727.495 1492.3 728.224 1490.43 729.683C1488.55 731.142 1486.67 732.914 1484.8 734.998C1482.92 736.978 1481.2 738.958 1479.64 740.938C1478.18 742.814 1477.09 744.273 1476.36 745.315Z" fill="white" fill-opacity="0.5"/>
<path d="M1436.63 770.799C1431.84 770.799 1428.5 769.236 1426.63 766.11C1424.75 762.983 1423.81 759.179 1423.81 754.698C1423.81 752.197 1424.02 749.644 1424.44 747.039C1424.85 744.329 1425.37 741.672 1426 739.066C1424.75 739.796 1423.24 740.942 1421.47 742.505C1419.69 744.069 1417.66 746.049 1415.37 748.446C1413.6 751.989 1412.04 755.428 1410.68 758.763C1409.33 761.993 1407.81 764.963 1406.15 767.673C1405.83 768.09 1405.42 768.35 1404.9 768.454C1404.38 768.559 1403.85 768.611 1403.33 768.611C1401.14 768.611 1400.05 767.621 1400.05 765.641C1400.05 763.348 1401.2 761.16 1403.49 759.075L1414.74 739.066C1413.81 739.796 1412.92 740.577 1412.09 741.411C1411.25 742.245 1410.32 743.131 1409.27 744.069C1408.86 744.485 1408.39 744.694 1407.87 744.694C1407.45 744.694 1407.24 744.485 1407.24 744.069C1407.24 743.652 1407.5 743.079 1408.02 742.349C1410.42 739.327 1413.34 735.992 1416.78 732.345C1420.32 728.593 1424.18 723.539 1428.34 717.182C1429.7 715.097 1431.63 712.492 1434.13 709.366C1436.63 706.239 1439.34 702.904 1442.26 699.361C1445.28 695.818 1448.3 692.483 1451.32 689.357C1454.35 686.126 1457 683.417 1459.3 681.228C1460.44 680.29 1461.43 679.509 1462.27 678.883C1463.1 678.258 1463.72 677.893 1464.14 677.789C1465.08 677.789 1465.97 678.31 1466.8 679.352C1467.63 680.394 1468.1 681.489 1468.21 682.635C1468.21 683.781 1467.79 684.563 1466.96 684.98C1465.71 686.022 1464.51 686.96 1463.36 687.794C1462.32 688.627 1461.22 689.565 1460.08 690.607C1457.26 693.108 1454.14 696.183 1450.7 699.83C1447.26 703.478 1443.77 707.386 1440.22 711.554C1436.79 715.723 1433.45 719.943 1430.22 724.216C1427.09 728.385 1424.33 732.345 1421.94 736.096C1422.14 736.305 1422.35 736.409 1422.56 736.409C1422.87 736.409 1423.24 736.253 1423.66 735.94C1424.18 735.523 1424.8 735.002 1425.53 734.377C1429.18 731.25 1433.14 728.072 1437.41 724.841C1441.68 721.506 1445.8 718.484 1449.76 715.775C1450.91 715.045 1452.05 714.42 1453.2 713.899C1454.45 713.274 1455.75 712.961 1457.11 712.961C1457.94 712.961 1458.72 713.117 1459.45 713.43C1460.29 713.638 1460.91 714.055 1461.33 714.68C1462.37 714.993 1463.36 715.514 1464.3 716.244C1465.34 716.973 1465.86 717.963 1465.86 719.214C1465.86 720.777 1465.08 722.288 1463.52 723.747C1461.95 725.102 1460.6 726.196 1459.45 727.03C1455.91 729.322 1451.74 731.302 1446.95 732.97C1442.26 734.533 1437.67 735.732 1433.19 736.565C1432.46 739.796 1431.78 743.131 1431.16 746.57C1430.64 749.905 1430.38 752.979 1430.38 755.793C1430.38 758.711 1430.74 761.107 1431.47 762.983C1432.2 764.859 1433.56 765.797 1435.54 765.797C1436.68 765.797 1438.09 765.276 1439.76 764.234C1441.53 763.087 1443.3 761.785 1445.07 760.326C1446.95 758.763 1448.61 757.252 1450.07 755.793C1451.64 754.334 1452.83 753.239 1453.67 752.51C1454.61 751.676 1455.96 750.426 1457.73 748.758C1459.5 747.091 1461.22 745.423 1462.89 743.756C1464.66 742.089 1465.86 740.89 1466.49 740.161C1466.59 740.056 1466.75 740.004 1466.96 740.004C1467.48 740.004 1467.74 740.369 1467.74 741.099C1467.74 741.932 1467.11 743.026 1465.86 744.381L1463.2 747.351C1458.93 752.145 1454.71 756.73 1450.54 761.107C1446.48 765.38 1442.88 768.35 1439.76 770.018C1438.71 770.539 1437.67 770.799 1436.63 770.799ZM1434.28 732.501C1435.43 732.292 1437.2 731.824 1439.6 731.094C1442 730.365 1444.45 729.427 1446.95 728.28C1449.55 727.134 1451.79 725.936 1453.67 724.685C1455.65 723.33 1456.79 721.975 1457.11 720.621C1456.79 719.891 1456.22 719.526 1455.39 719.526C1454.66 719.526 1453.3 720.1 1451.32 721.246C1449.34 722.288 1447.21 723.591 1444.91 725.154C1442.62 726.613 1440.49 728.072 1438.51 729.531C1436.53 730.886 1435.12 731.876 1434.28 732.501Z" fill="white" fill-opacity="0.5"/>
<path d="M1372.55 766.887C1366.3 766.887 1363.17 763.813 1363.17 757.665C1363.17 755.268 1363.8 752.506 1365.05 749.38C1366.4 746.149 1368.17 742.918 1370.36 739.688C1372.55 736.457 1375 733.487 1377.71 730.778C1380.42 727.964 1383.18 725.723 1385.99 724.056C1388.91 722.284 1391.62 721.398 1394.12 721.398C1394.96 721.398 1395.53 721.607 1395.84 722.024C1396.26 722.336 1396.57 722.91 1396.78 723.743C1396.99 724.16 1397.15 724.629 1397.25 725.15C1397.35 725.671 1397.51 726.192 1397.72 726.713C1398.14 727.443 1398.5 728.172 1398.81 728.902C1399.13 729.631 1399.28 730.413 1399.28 731.247C1399.28 732.289 1399.02 733.227 1398.5 734.06C1397.98 734.79 1397.35 735.467 1396.62 736.092C1395.58 737.03 1394.02 738.229 1391.93 739.688C1389.85 741.043 1387.56 742.449 1385.06 743.908C1382.66 745.263 1380.31 746.462 1378.02 747.504C1375.83 748.546 1374.06 749.171 1372.71 749.38C1371.77 750.839 1370.78 752.662 1369.74 754.851C1368.8 756.935 1368.33 758.863 1368.33 760.635C1368.33 761.573 1368.54 762.406 1368.96 763.136C1369.48 763.865 1370.26 764.23 1371.3 764.23C1372.97 764.23 1375.16 763.448 1377.87 761.885C1380.68 760.218 1383.6 758.238 1386.62 755.945C1389.64 753.548 1392.4 751.255 1394.9 749.067C1397.51 746.774 1399.44 745.003 1400.69 743.752L1405.69 738.437C1406.32 737.812 1406.99 737.499 1407.72 737.499C1408.35 737.499 1408.66 737.76 1408.66 738.281C1408.66 738.906 1407.78 740.209 1406 742.189C1404.23 744.065 1402.1 746.201 1399.59 748.598C1397.2 750.891 1394.96 753.027 1392.87 755.007C1390.79 756.883 1389.43 758.081 1388.81 758.603C1386.62 760.478 1384.12 762.354 1381.3 764.23C1378.49 766.002 1375.57 766.887 1372.55 766.887ZM1375.36 745.315C1376.41 744.69 1377.97 743.7 1380.05 742.345C1382.24 740.99 1384.48 739.479 1386.78 737.812C1389.07 736.145 1391 734.477 1392.56 732.81C1394.23 731.142 1395.06 729.683 1395.06 728.433C1395.06 728.12 1395.01 727.86 1394.9 727.651C1394.8 727.547 1394.59 727.495 1394.28 727.495C1392.92 727.495 1391.31 728.224 1389.43 729.683C1387.56 731.142 1385.68 732.914 1383.81 734.998C1381.93 736.978 1380.21 738.958 1378.65 740.938C1377.19 742.814 1376.09 744.273 1375.36 745.315Z" fill="white" fill-opacity="0.5"/>
<path d="M1363.32 709.372C1360.93 709.372 1359.73 708.486 1359.73 706.715C1359.73 705.464 1360.41 704.109 1361.76 702.65C1363.12 701.191 1365.1 700.149 1367.7 699.524C1369.26 699.107 1370.51 698.899 1371.45 698.899C1372.49 698.795 1373.48 698.586 1374.42 698.273C1374.01 700.253 1373.12 702.39 1371.76 704.683C1370.51 706.975 1368.85 708.382 1366.76 708.903C1365.72 709.216 1364.57 709.372 1363.32 709.372ZM1338.31 771.587C1336.65 771.587 1335.08 770.91 1333.62 769.555C1332.27 768.2 1331.43 766.741 1331.12 765.178C1331.43 763.198 1332.11 760.801 1333.15 757.988C1334.3 755.07 1335.6 752.047 1337.06 748.921C1338.52 745.795 1339.98 742.877 1341.44 740.167C1342.9 737.353 1344.15 735.113 1345.19 733.445C1343.21 735.217 1341.07 737.197 1338.78 739.385C1336.59 741.574 1334.51 743.606 1332.53 745.482C1332.42 745.586 1332.16 745.795 1331.75 746.107C1331.43 746.42 1331.12 746.576 1330.81 746.576C1330.08 746.576 1329.71 746.264 1329.71 745.638C1329.71 745.117 1329.92 744.648 1330.34 744.231C1333.15 741.105 1336.07 737.979 1339.09 734.852C1342.22 731.726 1345.24 728.495 1348.16 725.16C1349.1 724.014 1349.88 723.128 1350.51 722.503C1351.23 721.773 1352.33 721.409 1353.79 721.409C1354.41 721.409 1355.35 721.565 1356.6 721.878C1357.96 722.086 1359.05 722.503 1359.88 723.128C1360.82 723.754 1360.98 724.535 1360.35 725.473C1359.62 726.619 1358.37 728.495 1356.6 731.101C1354.83 733.706 1352.8 736.676 1350.51 740.011C1348.32 743.346 1346.13 746.733 1343.94 750.172C1341.86 753.506 1340.14 756.529 1338.78 759.238C1337.43 761.948 1336.75 763.98 1336.75 765.335C1336.75 765.96 1336.96 766.272 1337.37 766.272C1338 766.272 1339.04 765.699 1340.5 764.553C1342.06 763.407 1343.58 762.208 1345.03 760.958C1346.6 759.603 1347.64 758.717 1348.16 758.3C1351.18 755.695 1354.15 753.037 1357.07 750.328C1359.99 747.514 1362.75 744.596 1365.36 741.574C1365.56 741.366 1365.82 741.053 1366.14 740.636C1366.55 740.219 1366.97 740.011 1367.39 740.011C1367.91 740.011 1368.17 740.323 1368.17 740.949C1368.17 741.678 1367.91 742.408 1367.39 743.137C1366.03 744.805 1364.52 746.472 1362.85 748.139C1361.19 749.703 1359.62 751.266 1358.17 752.829C1355.46 755.539 1352.8 758.248 1350.19 760.958C1347.69 763.563 1345.19 766.272 1342.69 769.086C1342.17 769.711 1341.49 770.285 1340.66 770.806C1339.93 771.327 1339.15 771.587 1338.31 771.587Z" fill="white" fill-opacity="0.5"/>
<path d="M1306.75 770.957C1304.98 770.957 1303.31 770.54 1301.75 769.707C1300.18 768.977 1298.73 767.987 1297.37 766.737C1295.49 764.861 1293.31 762.255 1290.8 758.921C1288.3 755.586 1285.75 751.99 1283.15 748.134C1280.64 744.174 1278.25 740.423 1275.95 736.879C1273.77 733.232 1271.99 730.158 1270.64 727.657C1267.72 728.699 1264.6 730.47 1261.26 732.971C1257.93 735.368 1254.8 738.286 1251.88 741.725C1249.07 745.06 1246.77 748.551 1245 752.199C1243.23 755.846 1242.45 759.389 1242.66 762.829C1242.76 763.35 1242.92 763.923 1243.13 764.548C1243.34 765.173 1243.8 765.486 1244.53 765.486C1245.16 765.486 1245.47 766.007 1245.47 767.049C1245.47 767.466 1245.32 767.883 1245 768.3C1244.79 768.821 1244.38 769.081 1243.75 769.081C1241.46 769.081 1239.84 768.3 1238.91 766.737C1237.97 765.069 1237.5 763.141 1237.5 760.953C1237.5 757.514 1238.28 753.345 1239.84 748.447C1241.41 743.445 1243.44 738.182 1245.94 732.659C1248.44 727.031 1251.1 721.508 1253.91 716.089C1256.73 710.566 1259.38 705.511 1261.89 700.926C1264.39 696.341 1266.47 692.641 1268.14 689.827C1269.49 687.639 1270.8 685.294 1272.05 682.793C1273.4 680.188 1274.86 677.895 1276.42 675.915C1276.94 675.185 1277.83 674.716 1279.08 674.508C1280.33 674.3 1281.32 674.195 1282.05 674.195C1282.88 674.195 1283.82 674.404 1284.86 674.821C1285.91 675.133 1286.48 675.863 1286.58 677.009C1286.58 677.739 1286.38 678.52 1285.96 679.354C1285.65 680.083 1285.28 680.761 1284.86 681.386C1280.18 688.994 1275.38 696.549 1270.48 704.052C1265.69 711.556 1261.47 719.424 1257.82 727.657C1272.52 720.674 1286.58 712.754 1300.03 703.896C1313.58 694.934 1327.07 686.023 1340.51 677.165C1341.14 676.749 1341.77 676.384 1342.39 676.071C1343.12 675.759 1343.85 675.602 1344.58 675.602C1345.1 675.602 1345.57 675.759 1345.99 676.071C1346.4 676.28 1346.66 676.644 1346.77 677.165C1346.87 677.999 1345.52 679.562 1342.7 681.855C1339.89 684.043 1336.19 686.649 1331.6 689.671C1327.02 692.693 1322.07 695.872 1316.75 699.206C1311.44 702.541 1306.23 705.772 1301.12 708.898C1296.02 711.92 1291.53 714.63 1287.68 717.027C1283.93 719.32 1281.32 720.987 1279.86 722.029C1280.28 723.697 1281.17 726.302 1282.52 729.845C1283.98 733.284 1285.75 737.088 1287.83 741.256C1289.92 745.425 1292.16 749.489 1294.56 753.449C1296.95 757.305 1299.3 760.484 1301.59 762.985C1303.99 765.486 1306.12 766.737 1308 766.737C1309.77 766.737 1311.13 766.111 1312.06 764.861C1313.11 763.506 1313.84 761.838 1314.25 759.858C1314.77 757.878 1315.09 755.95 1315.19 754.075C1315.3 752.095 1315.3 750.479 1315.19 749.229C1315.19 749.02 1315.14 748.812 1315.03 748.603C1315.03 748.395 1315.03 748.187 1315.03 747.978C1315.03 747.249 1315.35 746.884 1315.97 746.884C1316.91 746.884 1317.69 747.457 1318.32 748.603C1319.05 749.75 1319.62 751 1320.04 752.355C1320.56 753.71 1320.82 754.752 1320.82 755.482C1321.03 758.087 1320.45 760.588 1319.1 762.985C1317.85 765.278 1316.13 767.153 1313.94 768.612C1311.86 770.176 1309.46 770.957 1306.75 770.957Z" fill="white" fill-opacity="0.5"/>
<path d="M1134.7 826.765C1124.91 826.765 1120.01 821.503 1120.01 810.977C1120.01 806.496 1120.95 800.973 1122.82 794.407C1124.18 790.03 1126.21 785.132 1128.92 779.713C1131.52 774.294 1134.55 768.667 1137.98 762.831C1141.53 756.995 1145.23 751.159 1149.08 745.323C1153.04 739.383 1156.95 733.703 1160.81 728.284C1159.04 728.909 1157.06 729.587 1154.87 730.316C1152.68 731.046 1151.01 731.41 1149.86 731.41C1149.34 731.202 1148.98 730.837 1148.77 730.316C1148.67 729.691 1148.61 729.118 1148.61 728.597C1148.61 727.242 1148.93 725.887 1149.55 724.532C1150.28 723.178 1151.32 722.448 1152.68 722.344C1154.35 722.135 1156.43 721.927 1158.93 721.719C1161.43 721.406 1163.78 721.145 1165.97 720.937L1168.31 717.811C1170.29 714.997 1172.84 711.454 1175.97 707.181C1179.2 702.908 1182.8 698.323 1186.76 693.425C1190.72 688.422 1194.94 683.472 1199.42 678.574C1203.9 673.676 1208.43 669.247 1213.02 665.287C1217.71 661.223 1222.29 657.992 1226.77 655.595C1231.26 653.198 1235.48 652 1239.44 652C1242.25 652 1244.23 653.251 1245.38 655.752C1246.63 658.149 1247.25 660.598 1247.25 663.099C1247.25 666.329 1246.42 669.195 1244.75 671.696C1243.19 674.093 1241.16 676.334 1238.65 678.418C1236.26 680.502 1233.76 682.587 1231.15 684.671C1228.55 686.755 1226.25 689.1 1224.27 691.705C1222.29 694.206 1220.99 697.124 1220.36 700.459C1220.26 700.876 1220.16 701.397 1220.05 702.022C1220.05 702.543 1219.79 702.335 1219.27 701.397C1218.54 700.355 1218.18 699.052 1218.18 697.489C1218.18 694.571 1219.37 691.236 1221.77 687.485C1224.27 683.733 1227.24 679.929 1230.68 676.073C1234.23 672.217 1237.56 668.726 1240.69 665.6C1241.21 665.079 1241.78 664.401 1242.41 663.568C1243.03 662.63 1243.34 661.796 1243.34 661.067C1243.34 659.816 1242.2 659.191 1239.9 659.191C1238.03 659.191 1235.58 660.077 1232.56 661.848C1229.64 663.62 1226.41 665.912 1222.87 668.726C1219.43 671.54 1215.99 674.458 1212.55 677.48C1209.21 680.502 1206.19 683.316 1203.48 685.921C1200.88 688.422 1198.95 690.298 1197.7 691.549C1193.84 695.301 1189.47 699.782 1184.57 704.992C1179.77 710.203 1175.4 715.362 1171.44 720.468C1173.42 720.364 1175.66 720.207 1178.16 719.999C1180.66 719.686 1183.11 719.426 1185.51 719.217C1188.01 719.009 1190.04 718.905 1191.6 718.905C1191.91 718.905 1192.44 718.957 1193.17 719.061C1193.89 719.165 1194.26 719.426 1194.26 719.843C1194.26 720.26 1193.74 720.572 1192.7 720.781C1191.65 720.885 1191.03 720.989 1190.82 721.093C1188.74 721.406 1186.65 721.771 1184.57 722.187C1182.48 722.604 1180.4 723.021 1178.32 723.438C1177.38 723.646 1175.76 724.063 1173.47 724.689C1171.28 725.21 1169.2 725.731 1167.22 726.252C1166.7 727.086 1166.17 727.919 1165.65 728.753C1165.13 729.482 1164.66 730.264 1164.25 731.098C1172.17 730.889 1177.9 732.974 1181.44 737.35C1184.98 741.727 1186.76 747.459 1186.76 754.546C1186.76 759.444 1185.97 764.706 1184.41 770.334C1182.64 777.004 1180.09 783.673 1176.75 790.343C1173.42 797.012 1169.51 803.109 1165.03 808.632C1160.55 814.156 1155.7 818.532 1150.49 821.763C1145.38 825.098 1140.12 826.765 1134.7 826.765ZM1137.05 822.857C1141.01 822.857 1144.76 821.659 1148.3 819.262C1151.95 816.865 1155.34 813.739 1158.46 809.883C1161.69 806.027 1164.56 801.754 1167.06 797.065C1169.67 792.375 1171.91 787.685 1173.78 782.996C1175.66 778.41 1177.06 774.242 1178 770.49C1178.63 767.989 1179.1 765.54 1179.41 763.143C1179.83 760.746 1180.03 758.454 1180.03 756.265C1180.03 750.429 1178.73 745.479 1176.13 741.415C1173.52 737.35 1169.25 735.162 1163.31 734.849C1162.37 736.1 1160.96 738.184 1159.09 741.102C1157.21 743.916 1155.08 747.199 1152.68 750.95C1150.39 754.702 1148.09 758.506 1145.8 762.362C1143.51 766.217 1141.42 769.813 1139.55 773.148C1137.67 776.587 1136.21 779.4 1135.17 781.589C1134.44 783.256 1133.4 785.757 1132.04 789.092C1130.59 792.427 1129.33 796.075 1128.29 800.035C1127.15 803.995 1126.57 807.694 1126.57 811.133C1126.57 814.468 1127.35 817.23 1128.92 819.418C1130.48 821.711 1133.19 822.857 1137.05 822.857Z" fill="white" fill-opacity="0.5"/>
<path d="M1104.7 770.014C1101.67 770.014 1099.43 768.816 1097.97 766.419C1096.51 763.918 1095.79 761.365 1095.79 758.759C1095.79 755.216 1096.72 751.412 1098.6 747.348C1100.47 743.179 1102.72 739.219 1105.32 735.468C1108.03 731.716 1110.43 728.642 1112.51 726.245C1113.03 725.62 1113.71 725.307 1114.54 725.307C1115.48 725.307 1116.42 725.672 1117.36 726.401C1119.55 724.838 1122.05 723.431 1124.86 722.181C1127.78 720.93 1130.59 720.305 1133.3 720.305C1137.99 720.305 1140.34 722.702 1140.34 727.495C1140.34 732.081 1139.19 736.301 1136.9 740.157C1134.71 744.013 1132.26 747.765 1129.55 751.412C1128.82 752.35 1128.09 753.236 1127.36 754.07C1126.74 754.903 1126.01 755.737 1125.17 756.571C1129.76 755.32 1133.77 753.236 1137.21 750.318C1140.65 747.4 1144.04 744.378 1147.37 741.252C1147.79 740.835 1148.15 740.522 1148.46 740.314C1148.88 740.001 1149.4 739.845 1150.03 739.845C1150.55 739.845 1150.81 740.209 1150.81 740.939C1150.81 741.043 1150.65 741.304 1150.34 741.72C1150.03 742.137 1149.82 742.45 1149.72 742.658C1146.28 746.827 1142 750.735 1136.9 754.382C1131.89 757.926 1126.63 760.114 1121.11 760.948C1119.13 762.928 1116.63 764.96 1113.61 767.044C1110.58 769.024 1107.61 770.014 1104.7 770.014ZM1116.89 757.665C1117.31 757.665 1117.67 757.665 1117.98 757.665C1118.4 757.665 1118.82 757.613 1119.23 757.509C1121.32 755.008 1123.45 752.038 1125.64 748.599C1127.93 745.16 1129.86 741.616 1131.43 737.969C1132.99 734.217 1133.77 730.83 1133.77 727.808C1133.77 725.932 1132.88 724.994 1131.11 724.994C1129.34 724.994 1127.31 725.515 1125.02 726.557C1122.72 727.6 1120.8 728.694 1119.23 729.84V730.309C1119.23 731.351 1118.4 732.862 1116.73 734.842C1115.17 736.718 1113.45 738.646 1111.57 740.626C1109.8 742.606 1108.5 744.274 1107.67 745.628C1107.35 749.067 1108.03 751.933 1109.7 754.226C1111.37 756.519 1113.76 757.665 1116.89 757.665ZM1104.85 767.357C1106.83 767.357 1108.76 766.627 1110.64 765.168C1112.62 763.709 1114.28 762.355 1115.64 761.104C1113.14 760.896 1110.84 760.062 1108.76 758.603C1106.78 757.04 1104.96 755.32 1103.29 753.444C1102.98 754.07 1102.56 755.268 1102.04 757.04C1101.52 758.811 1101.26 760.583 1101.26 762.355C1101.26 763.709 1101.52 764.908 1102.04 765.95C1102.56 766.888 1103.5 767.357 1104.85 767.357Z" fill="white" fill-opacity="0.5"/>
<path d="M1072.46 775.859C1070.58 775.859 1068.97 775.234 1067.61 773.984C1066.36 772.733 1065.37 771.222 1064.64 769.45C1064.02 767.574 1063.7 765.803 1063.7 764.135C1063.7 762.468 1063.91 760.853 1064.33 759.29C1064.75 757.622 1065.32 756.007 1066.05 754.444C1067.4 751.421 1069.02 748.087 1070.89 744.439C1072.87 740.688 1074.96 736.884 1077.15 733.028C1079.44 729.068 1081.73 725.472 1084.02 722.242C1082.25 722.971 1080.17 723.805 1077.77 724.743C1075.48 725.577 1073.97 725.993 1073.24 725.993C1072.82 725.889 1072.51 725.577 1072.3 725.056C1072.2 724.534 1072.14 724.013 1072.14 723.492C1072.14 721.304 1073.19 719.845 1075.27 719.115C1078.5 718.073 1082.83 717.135 1088.25 716.302C1092.21 711.091 1096.48 705.88 1101.06 700.67C1105.75 695.459 1110.49 691.343 1115.29 688.32C1116.23 687.695 1117.27 688.008 1118.41 689.258C1119.56 690.405 1120.19 691.603 1120.29 692.854C1120.29 694 1119.87 694.782 1119.04 695.199C1114.87 697.804 1111.02 700.774 1107.47 704.109C1103.93 707.339 1100.28 711.039 1096.53 715.207C1098.61 714.895 1100.44 714.686 1102 714.582C1103.56 714.478 1104.55 714.426 1104.97 714.426C1105.28 714.426 1105.81 714.426 1106.53 714.426C1107.26 714.322 1108.05 714.27 1108.88 714.27C1110.13 714.27 1111.28 714.374 1112.32 714.582C1113.46 714.791 1114.04 715.155 1114.04 715.676C1114.04 716.093 1113.57 716.458 1112.63 716.771C1111.8 716.979 1110.86 717.135 1109.82 717.24C1108.78 717.24 1107.99 717.292 1107.47 717.396C1104.35 717.813 1101.53 718.23 1099.03 718.646C1096.63 719.063 1094.39 719.584 1092.31 720.21C1089.91 723.128 1088.04 725.577 1086.68 727.557C1085.43 729.537 1084.34 731.36 1083.4 733.028C1082.57 734.591 1081.52 736.363 1080.27 738.343C1077.56 743.553 1075.22 748.868 1073.24 754.287C1071.36 759.706 1070.42 764.083 1070.42 767.418C1070.42 767.939 1070.48 768.356 1070.58 768.669C1070.69 768.981 1071 769.138 1071.52 769.138C1072.14 769.138 1072.72 768.981 1073.24 768.669C1073.86 768.252 1074.38 767.835 1074.8 767.418C1076.26 766.272 1077.62 764.969 1078.87 763.51C1080.22 761.947 1081.52 760.488 1082.77 759.133C1085.07 756.632 1087.41 754.183 1089.81 751.786C1092.21 749.389 1094.55 746.992 1096.84 744.596C1097.05 744.387 1097.26 744.231 1097.47 744.127C1097.68 743.918 1097.89 743.814 1098.09 743.814C1098.82 743.814 1099.19 744.231 1099.19 745.064C1099.19 745.377 1098.98 745.846 1098.56 746.471C1097.31 748.139 1095.96 749.806 1094.5 751.474C1093.04 753.037 1091.63 754.652 1090.28 756.319C1087.57 759.55 1084.86 762.729 1082.15 765.855C1079.54 768.981 1076.94 772.212 1074.33 775.547C1074.02 775.651 1073.71 775.703 1073.39 775.703C1073.08 775.807 1072.77 775.859 1072.46 775.859Z" fill="white" fill-opacity="0.5"/>
<path d="M1037.55 774.862C1036.3 774.862 1035 774.549 1033.64 773.924C1032.39 773.403 1031.14 772.673 1029.89 771.736C1028.54 770.589 1027.23 768.974 1025.98 766.89C1024.73 764.805 1023.69 762.617 1022.86 760.324L1010.82 773.455C1010.51 773.768 1010.3 773.924 1010.2 773.924C1009.78 773.924 1009.57 773.611 1009.57 772.986C1009.57 772.048 1009.88 771.267 1010.51 770.641L1022.08 757.51C1021.76 756.26 1021.61 755.061 1021.61 753.915C1020.88 753.394 1019.89 752.769 1018.64 752.039C1017.49 751.206 1016.92 749.851 1016.92 747.975C1016.92 745.787 1017.59 743.65 1018.95 741.566C1020.3 739.482 1021.45 738.439 1022.39 738.439C1023.12 738.439 1023.48 739.065 1023.48 740.315C1023.48 740.732 1023.48 741.826 1023.48 743.598C1023.59 745.37 1023.69 747.193 1023.8 749.069C1023.9 750.841 1024 752.039 1024.11 752.665C1024.73 753.081 1025.25 753.342 1025.67 753.446C1029.74 748.757 1034.01 743.911 1038.49 738.908C1042.97 733.906 1046.98 729.633 1050.53 726.09C1052.3 723.381 1054.23 721.088 1056.31 719.212C1058.5 717.336 1061 716.398 1063.81 716.398C1065.79 716.398 1067.2 716.763 1068.03 717.493C1068.87 718.222 1069.28 719.056 1069.28 719.994C1069.28 720.932 1068.87 721.818 1068.03 722.651C1067.3 723.381 1066.21 723.745 1064.75 723.745C1062.46 723.641 1060.48 723.745 1058.81 724.058C1057.14 724.267 1055.95 724.996 1055.22 726.247C1054.49 727.601 1053.65 729.842 1052.71 732.968C1051.78 736.095 1050.84 739.638 1049.9 743.598C1049.07 747.558 1048.34 751.414 1047.71 755.166C1049.9 754.749 1051.99 754.228 1053.97 753.603C1056.05 752.873 1058.29 751.675 1060.69 750.007C1063.08 748.34 1065.85 745.891 1068.97 742.66C1069.49 742.035 1070.01 741.722 1070.53 741.722C1070.85 741.722 1071 741.931 1071 742.347C1071 742.556 1070.9 742.921 1070.69 743.442C1070.48 743.963 1070.07 744.64 1069.44 745.474C1068.19 747.141 1066.63 748.809 1064.75 750.476C1062.98 752.039 1061.42 753.238 1060.06 754.071C1057.25 755.739 1054.59 756.781 1052.09 757.198C1049.59 757.51 1047.97 757.719 1047.24 757.823C1046.83 760.012 1046.46 761.835 1046.15 763.294C1045.84 764.649 1045.63 765.639 1045.52 766.264C1045 769.287 1043.96 771.475 1042.4 772.83C1040.94 774.185 1039.32 774.862 1037.55 774.862ZM1041.15 755.166C1041.67 752.769 1042.35 749.59 1043.18 745.63C1044.12 741.67 1045.37 737.71 1046.93 733.75C1044.22 736.772 1041.2 740.055 1037.86 743.598C1034.63 747.141 1031.46 750.685 1028.33 754.228C1030.31 754.645 1032.45 754.957 1034.74 755.166C1037.03 755.27 1039.17 755.27 1041.15 755.166ZM1035.21 767.359C1036.04 767.359 1036.87 766.785 1037.71 765.639C1038.65 764.389 1039.53 762.096 1040.37 758.761C1040.37 758.448 1040.42 758.24 1040.52 758.136C1038.02 758.032 1035.57 757.875 1033.17 757.667C1030.88 757.354 1028.69 756.833 1026.61 756.104L1025.36 757.51C1026.19 759.178 1027.18 760.897 1028.33 762.669C1029.48 764.336 1030.78 765.535 1032.24 766.264C1032.76 766.577 1033.28 766.838 1033.8 767.046C1034.32 767.254 1034.79 767.359 1035.21 767.359Z" fill="white" fill-opacity="0.5"/>
<path d="M1014.44 706.505C1012.05 706.505 1010.85 705.619 1010.85 703.848C1010.85 702.597 1011.53 701.242 1012.88 699.783C1014.24 698.324 1016.22 697.282 1018.82 696.657C1020.38 696.24 1021.64 696.032 1022.57 696.032C1023.62 695.927 1024.61 695.719 1025.54 695.406C1025.13 697.386 1024.24 699.523 1022.89 701.815C1021.64 704.108 1019.97 705.515 1017.88 706.036C1016.84 706.349 1015.7 706.505 1014.44 706.505ZM989.433 768.72C987.766 768.72 986.203 768.043 984.744 766.688C983.389 765.333 982.555 763.874 982.243 762.311C982.555 760.331 983.233 757.934 984.275 755.12C985.421 752.202 986.724 749.18 988.183 746.054C989.642 742.927 991.101 740.009 992.56 737.3C994.019 734.486 995.269 732.246 996.312 730.578C994.332 732.35 992.195 734.33 989.902 736.518C987.714 738.707 985.63 740.739 983.65 742.615C983.545 742.719 983.285 742.927 982.868 743.24C982.555 743.553 982.243 743.709 981.93 743.709C981.201 743.709 980.836 743.396 980.836 742.771C980.836 742.25 981.044 741.781 981.461 741.364C984.275 738.238 987.193 735.111 990.215 731.985C993.341 728.859 996.364 725.628 999.282 722.293C1000.22 721.147 1001 720.261 1001.63 719.636C1002.36 718.906 1003.45 718.542 1004.91 718.542C1005.53 718.542 1006.47 718.698 1007.72 719.011C1009.08 719.219 1010.17 719.636 1011.01 720.261C1011.94 720.886 1012.1 721.668 1011.47 722.606C1010.75 723.752 1009.49 725.628 1007.72 728.233C1005.95 730.839 1003.92 733.809 1001.63 737.144C999.438 740.478 997.249 743.865 995.061 747.304C992.977 750.639 991.257 753.661 989.902 756.371C988.548 759.08 987.87 761.113 987.87 762.467C987.87 763.093 988.079 763.405 988.496 763.405C989.121 763.405 990.163 762.832 991.622 761.686C993.185 760.539 994.696 759.341 996.155 758.09C997.718 756.736 998.761 755.85 999.282 755.433C1002.3 752.828 1005.27 750.17 1008.19 747.461C1011.11 744.647 1013.87 741.729 1016.48 738.707C1016.69 738.498 1016.95 738.186 1017.26 737.769C1017.68 737.352 1018.09 737.144 1018.51 737.144C1019.03 737.144 1019.29 737.456 1019.29 738.081C1019.29 738.811 1019.03 739.54 1018.51 740.27C1017.15 741.937 1015.64 743.605 1013.98 745.272C1012.31 746.835 1010.75 748.399 1009.29 749.962C1006.58 752.671 1003.92 755.381 1001.31 758.09C998.813 760.696 996.312 763.405 993.81 766.219C993.289 766.844 992.612 767.417 991.778 767.939C991.049 768.46 990.267 768.72 989.433 768.72Z" fill="white" fill-opacity="0.5"/>
<path d="M955.371 776.212C953.704 776.212 951.932 775.378 950.057 773.711C948.285 771.939 947.399 770.22 947.399 768.552C947.399 766.468 948.129 764.123 949.588 761.518C951.047 758.809 952.766 756.203 954.746 753.702C956.726 751.201 958.446 749.065 959.905 747.293C961.364 745.417 962.093 744.167 962.093 743.541V743.229C961.155 742.395 960.27 741.613 959.436 740.884C958.602 740.05 957.456 739.633 955.997 739.633C954.955 739.633 953.6 740.259 951.932 741.509C950.369 742.76 948.754 744.219 947.087 745.886C945.419 747.554 943.908 749.117 942.553 750.576C941.199 752.035 940.208 753.025 939.583 753.546C939.166 753.963 938.75 754.223 938.333 754.327C938.02 754.432 937.759 754.484 937.551 754.484C937.134 754.484 936.926 754.275 936.926 753.858C936.926 753.442 937.134 753.025 937.551 752.608C939.218 750.419 941.146 748.179 943.335 745.886C945.523 743.593 947.503 741.509 949.275 739.633C951.047 737.653 952.089 736.246 952.401 735.413C953.235 733.016 954.069 730.879 954.903 729.004C955.84 727.128 957.299 725.356 959.279 723.689C960.113 722.855 961.103 722.178 962.25 721.657C963.396 721.136 964.542 720.875 965.689 720.875C966.731 720.875 967.564 721.188 968.19 721.813C968.919 722.334 969.284 723.168 969.284 724.314C969.284 725.565 968.711 726.815 967.564 728.066C966.522 729.316 965.272 730.515 963.813 731.661C962.354 732.703 961.051 733.641 959.905 734.475C958.863 735.309 958.394 735.986 958.498 736.507C959.123 736.924 960.322 737.445 962.093 738.07C963.969 738.695 965.272 739.008 966.001 739.008C966.835 739.008 967.617 738.852 968.346 738.539C969.076 738.226 969.805 738.07 970.535 738.07C971.577 738.07 972.619 738.383 973.661 739.008C974.703 739.633 975.224 740.571 975.224 741.822C975.224 742.864 974.807 743.854 973.974 744.792C973.244 745.626 972.462 746.355 971.629 746.98C970.378 747.918 968.711 749.325 966.627 751.201C964.542 753.077 962.406 755.161 960.217 757.454C958.133 759.746 956.309 762.039 954.746 764.332C953.287 766.52 952.558 768.448 952.558 770.116C952.558 770.533 952.662 770.949 952.87 771.366C952.975 771.47 953.183 771.523 953.496 771.523C955.58 771.523 957.925 770.585 960.53 768.709C963.135 766.833 965.741 764.54 968.346 761.831C971.056 759.121 973.557 756.464 975.849 753.858C978.246 751.149 980.278 749.065 981.946 747.606C982.154 747.397 982.415 747.189 982.727 746.98C983.04 746.772 983.353 746.668 983.665 746.668C984.186 746.668 984.447 747.032 984.447 747.762C984.447 748.179 983.717 749.221 982.258 750.888C980.904 752.556 979.132 754.536 976.944 756.828C974.755 759.121 972.462 761.466 970.066 763.863C967.773 766.26 965.636 768.396 963.656 770.272C961.676 772.044 960.27 773.294 959.436 774.024C958.289 774.962 957.456 775.535 956.935 775.743C956.414 776.056 955.893 776.212 955.371 776.212Z" fill="white" fill-opacity="0.5"/>
<path d="M921.593 770.957C919.822 770.957 918.154 770.54 916.591 769.707C915.028 768.977 913.569 767.987 912.214 766.737C910.338 764.861 908.15 762.255 905.649 758.921C903.148 755.586 900.594 751.99 897.989 748.134C895.488 744.174 893.091 740.423 890.798 736.879C888.61 733.232 886.838 730.158 885.483 727.657C882.566 728.699 879.439 730.47 876.104 732.971C872.77 735.368 869.643 738.286 866.725 741.725C863.911 745.06 861.619 748.551 859.847 752.199C858.075 755.846 857.294 759.389 857.502 762.829C857.607 763.35 857.763 763.923 857.971 764.548C858.18 765.173 858.649 765.486 859.378 765.486C860.003 765.486 860.316 766.007 860.316 767.049C860.316 767.466 860.16 767.883 859.847 768.3C859.639 768.821 859.222 769.081 858.597 769.081C856.304 769.081 854.689 768.3 853.751 766.737C852.813 765.069 852.344 763.141 852.344 760.953C852.344 757.514 853.125 753.345 854.689 748.447C856.252 743.445 858.284 738.182 860.785 732.659C863.286 727.031 865.944 721.508 868.757 716.089C871.571 710.566 874.228 705.511 876.73 700.926C879.231 696.341 881.315 692.641 882.982 689.827C884.337 687.639 885.64 685.294 886.89 682.793C888.245 680.188 889.704 677.895 891.267 675.915C891.788 675.185 892.674 674.716 893.925 674.508C895.175 674.3 896.165 674.195 896.895 674.195C897.729 674.195 898.666 674.404 899.709 674.821C900.751 675.133 901.324 675.863 901.428 677.009C901.428 677.739 901.22 678.52 900.803 679.354C900.49 680.083 900.125 680.761 899.709 681.386C895.019 688.994 890.225 696.549 885.327 704.052C880.533 711.556 876.313 719.424 872.665 727.657C887.359 720.674 901.428 712.754 914.872 703.896C928.419 694.934 941.915 686.023 955.358 677.165C955.984 676.749 956.609 676.384 957.234 676.071C957.964 675.759 958.693 675.602 959.423 675.602C959.944 675.602 960.413 675.759 960.83 676.071C961.246 676.28 961.507 676.644 961.611 677.165C961.715 677.999 960.361 679.562 957.547 681.855C954.733 684.043 951.034 686.649 946.448 689.671C941.863 692.693 936.913 695.872 931.598 699.206C926.283 702.541 921.072 705.772 915.966 708.898C910.859 711.92 906.378 714.63 902.522 717.027C898.771 719.32 896.165 720.987 894.706 722.029C895.123 723.697 896.009 726.302 897.364 729.845C898.823 733.284 900.594 737.088 902.679 741.256C904.763 745.425 907.003 749.489 909.4 753.449C911.797 757.305 914.142 760.484 916.435 762.985C918.832 765.486 920.968 766.737 922.844 766.737C924.616 766.737 925.97 766.111 926.908 764.861C927.95 763.506 928.68 761.838 929.097 759.858C929.618 757.878 929.93 755.95 930.035 754.075C930.139 752.095 930.139 750.479 930.035 749.229C930.035 749.02 929.982 748.812 929.878 748.603C929.878 748.395 929.878 748.187 929.878 747.978C929.878 747.249 930.191 746.884 930.816 746.884C931.754 746.884 932.536 747.457 933.161 748.603C933.89 749.75 934.464 751 934.88 752.355C935.402 753.71 935.662 754.752 935.662 755.482C935.87 758.087 935.297 760.588 933.943 762.985C932.692 765.278 930.972 767.153 928.784 768.612C926.7 770.176 924.303 770.957 921.593 770.957Z" fill="white" fill-opacity="0.5"/>
<path d="M735.011 828.165C730.217 828.165 727.82 825.768 727.82 820.974C727.82 820.453 727.872 819.932 727.977 819.411C727.977 818.89 728.029 818.369 728.133 817.848C728.967 814.096 730.738 810.501 733.448 807.062C736.157 803.623 739.336 800.392 742.983 797.37C746.631 794.452 750.33 791.69 754.082 789.085C757.938 786.584 761.377 784.395 764.399 782.519C766.171 781.373 768.411 779.966 771.121 778.299C773.935 776.631 776.905 774.808 780.031 772.828C783.157 770.952 786.128 769.18 788.941 767.513C790.088 764.595 790.869 761.364 791.286 757.821C791.807 754.173 792.068 750.787 792.068 747.66V746.41C790.817 748.285 788.993 750.474 786.596 752.975C784.2 755.476 781.49 757.925 778.468 760.322C775.446 762.615 772.476 764.543 769.558 766.106C766.64 767.669 763.982 768.451 761.585 768.451C759.918 768.451 758.772 767.93 758.146 766.887C757.625 765.845 757.365 764.647 757.365 763.292C757.365 759.645 758.146 755.893 759.71 752.037C761.273 748.181 763.044 744.638 765.024 741.407C767.004 738.073 768.776 735.311 770.339 733.122C771.902 730.83 772.684 729.527 772.684 729.214C772.684 729.11 772.58 729.058 772.371 729.058C771.955 729.058 771.486 729.058 770.965 729.058C770.548 729.058 770.496 728.745 770.808 728.12C772.267 726.349 774.091 724.785 776.279 723.431C778.468 722.076 780.552 721.398 782.532 721.398C783.262 721.398 784.095 721.711 785.033 722.336C786.075 722.857 786.596 723.535 786.596 724.369C786.596 724.89 786.284 725.463 785.659 726.088C784.929 726.818 784.043 727.651 783.001 728.589C782.063 729.527 780.761 730.986 779.093 732.966C778.155 734.008 776.853 735.728 775.185 738.125C773.518 740.417 771.798 743.075 770.027 746.097C768.255 749.015 766.744 751.933 765.493 754.851C764.347 757.665 763.774 760.114 763.774 762.198C763.774 762.51 763.774 762.875 763.774 763.292C763.878 763.605 764.139 763.917 764.555 764.23C766.014 764.334 767.838 763.709 770.027 762.354C772.215 760.895 774.508 759.071 776.905 756.883C779.406 754.59 781.751 752.193 783.939 749.692C786.232 747.087 788.212 744.69 789.879 742.502C791.651 740.209 792.901 738.385 793.631 737.03C794.777 734.946 796.497 733.904 798.789 733.904C800.457 733.904 801.395 734.269 801.603 734.998C801.916 735.728 802.072 736.718 802.072 737.968C802.072 742.033 801.812 745.628 801.291 748.754C800.874 751.777 800.04 755.216 798.789 759.071C805.459 753.34 811.816 747.295 817.86 740.938C817.965 740.73 818.173 740.469 818.486 740.157C818.903 739.844 819.215 739.688 819.424 739.688C820.049 739.688 820.362 740 820.362 740.626C820.362 741.459 820.049 742.293 819.424 743.127C818.486 744.273 817.444 745.42 816.297 746.566C815.255 747.712 814.213 748.859 813.171 750.005C810.67 752.714 808.116 755.424 805.511 758.134C802.906 760.739 800.144 763.24 797.226 765.637C792.432 778.247 786.128 789.293 778.312 798.777C770.6 808.364 760.856 816.545 749.08 823.319C747.1 824.465 744.859 825.559 742.358 826.602C739.857 827.644 737.408 828.165 735.011 828.165ZM738.606 824.257C741.42 824.257 744.494 823.215 747.829 821.13C751.06 819.15 754.29 816.649 757.521 813.627C760.752 810.605 763.67 807.583 766.275 804.56C768.984 801.642 771.121 799.193 772.684 797.213C774.456 794.817 776.175 792.42 777.843 790.023C779.51 787.73 781.073 785.333 782.532 782.832C784.721 779.185 786.544 775.641 788.003 772.202C788.108 771.89 788.003 771.681 787.691 771.577C787.482 771.577 787.378 771.577 787.378 771.577C784.147 773.87 780.865 776.11 777.53 778.299C774.299 780.591 771.017 782.832 767.682 785.021C766.014 786.063 763.774 787.574 760.96 789.554C758.146 791.638 755.124 793.931 751.894 796.432C748.663 799.037 745.589 801.695 742.671 804.404C739.753 807.218 737.356 809.927 735.48 812.533C733.604 815.242 732.666 817.639 732.666 819.723C732.666 821.391 733.344 822.537 734.698 823.162C735.949 823.892 737.252 824.257 738.606 824.257Z" fill="white" fill-opacity="0.5"/>
<path d="M689.716 770.794C688.674 770.794 687.632 770.742 686.589 770.637C685.547 770.637 684.557 770.585 683.619 770.481H683.307C682.577 770.377 681.222 770.221 679.242 770.012C677.367 769.908 675.334 769.699 673.146 769.387C670.958 769.074 669.082 768.605 667.518 767.98C665.955 767.355 665.122 766.573 665.017 765.635C664.913 765.114 665.278 764.854 666.112 764.854C666.945 764.749 667.466 764.697 667.675 764.697C670.384 764.697 673.042 764.854 675.647 765.166L679.868 765.635C679.764 765.01 679.607 764.437 679.399 763.916C679.295 763.395 679.242 762.926 679.242 762.509C679.242 762.092 679.19 761.727 679.086 761.415C679.086 760.998 679.086 760.581 679.086 760.164C679.086 755.683 680.076 750.576 682.056 744.845C684.036 739.009 686.589 732.964 689.716 726.712C692.946 720.459 696.385 714.362 700.033 708.422C703.68 702.378 707.276 696.959 710.819 692.165C714.362 687.267 717.437 683.359 720.042 680.441C718.687 680.337 717.332 680.285 715.978 680.285C714.727 680.285 713.372 680.285 711.913 680.285C709.204 680.285 705.973 680.389 702.221 680.597C698.47 680.702 695.291 681.17 692.686 682.004C691.644 682.317 690.602 682.629 689.56 682.942C688.517 683.255 687.423 683.411 686.277 683.411C686.173 683.411 685.86 683.411 685.339 683.411C684.818 683.307 684.557 683.098 684.557 682.786C684.349 680.806 685.287 679.19 687.371 677.94C689.455 676.585 691.956 675.543 694.874 674.813C697.897 673.98 700.762 673.407 703.472 673.094C706.286 672.781 708.318 672.625 709.568 672.625C712.591 672.625 716.551 672.833 721.449 673.25C726.451 673.667 731.662 674.397 737.081 675.439C742.604 676.481 747.867 677.94 752.869 679.816C757.871 681.587 761.988 683.932 765.218 686.85C768.553 689.664 770.429 693.051 770.846 697.011C771.158 700.137 770.325 702.899 768.345 705.296C766.365 707.588 763.759 709.621 760.529 711.392C757.298 713.164 753.807 714.727 750.055 716.082C746.304 717.437 742.708 718.635 739.269 719.677C735.934 720.719 733.225 721.761 731.141 722.804C734.475 723.637 737.706 725.148 740.832 727.337C743.959 729.421 746.564 731.974 748.648 734.997C750.837 737.914 752.087 741.145 752.4 744.688C752.713 747.815 751.514 750.733 748.805 753.442C746.199 756.152 742.604 758.601 738.019 760.789C733.537 762.874 728.483 764.697 722.856 766.26C717.228 767.719 711.496 768.814 705.66 769.543C699.929 770.377 694.614 770.794 689.716 770.794ZM701.284 722.491H705.035C706.911 722.491 709.673 722.178 713.32 721.553C717.072 720.824 721.24 719.834 725.826 718.583C730.515 717.332 735.257 715.873 740.051 714.206C744.845 712.539 749.222 710.767 753.182 708.891C757.246 706.911 760.477 704.879 762.873 702.795C765.375 700.606 766.625 698.418 766.625 696.229C766.625 694.041 765.479 692.113 763.186 690.445C760.998 688.778 758.132 687.371 754.588 686.225C751.149 684.974 747.502 683.984 743.646 683.255C739.79 682.421 736.195 681.848 732.86 681.535C729.629 681.118 727.128 680.91 725.357 680.91C725.774 681.431 726.19 682.004 726.607 682.629C727.024 683.255 727.285 683.932 727.389 684.662V684.974C727.389 685.808 727.128 686.485 726.607 687.006C722.126 692.738 717.541 698.418 712.851 704.045C708.162 709.673 704.306 715.821 701.284 722.491ZM684.245 765.791C689.038 765.791 694.197 765.375 699.72 764.541C705.244 763.707 710.715 762.561 716.134 761.102C721.553 759.539 726.451 757.767 730.828 755.787C735.309 753.703 738.852 751.462 741.458 749.065C744.167 746.564 745.522 743.907 745.522 741.093C745.522 738.592 744.636 736.403 742.865 734.528C741.197 732.652 739.061 731.141 736.455 729.994C733.85 728.744 731.193 727.858 728.483 727.337C725.774 726.712 723.429 726.399 721.449 726.399C719.26 726.399 716.968 726.764 714.571 727.493C712.278 728.118 710.142 728.796 708.162 729.525C706.182 730.255 704.566 730.62 703.316 730.62C702.274 730.62 701.388 730.046 700.658 728.9C699.929 727.649 699.564 726.607 699.564 725.774C697.167 729.525 694.77 733.59 692.373 737.967C689.976 742.239 687.996 746.72 686.433 751.41C684.87 756.1 684.14 760.893 684.245 765.791Z" fill="white" fill-opacity="0.5"/>
<path d="M1449 539.627C1449 510.728 1457.17 487.358 1473.5 469.516C1490.09 451.423 1511.07 442.251 1536.45 442C1561.83 442 1582.69 451.172 1599.02 469.516C1615.61 487.609 1623.9 510.98 1623.9 539.627C1623.9 568.274 1615.73 591.77 1599.4 610.114C1583.32 628.459 1562.33 637.631 1536.45 637.631C1510.82 637.631 1489.83 628.459 1473.5 610.114C1457.17 591.77 1449 568.274 1449 539.627ZM1594.87 557.72V521.911C1594.87 499.546 1589.47 481.578 1578.67 468.009C1567.86 454.439 1553.79 447.654 1536.45 447.654C1519.11 447.654 1504.91 454.439 1493.86 468.009C1482.8 481.578 1477.27 499.546 1477.27 521.911V557.72C1477.27 580.587 1482.8 598.68 1493.86 611.999C1504.91 625.317 1519.11 631.977 1536.45 631.977C1553.79 631.977 1567.86 625.317 1578.67 611.999C1589.47 598.68 1594.87 580.587 1594.87 557.72Z" fill="white"/>
<path d="M1410.23 627.836V632.737H1342V627.836L1363.11 624.444V455.199L1342 451.806V446.906H1410.23V451.806L1388.74 455.199V624.444L1410.23 627.836Z" fill="white"/>
<path d="M1127 446.906H1215.58C1241.46 446.906 1262.57 455.576 1278.91 472.915C1295.24 490.003 1303.28 512.368 1303.03 540.01C1303.03 567.652 1294.99 590.017 1278.91 607.105C1262.82 624.193 1241.71 632.737 1215.58 632.737H1127V627.836L1148.11 624.444V455.199L1127 451.806V446.906ZM1215.58 452.937H1173.74V627.083H1215.58C1232.92 627.083 1246.87 621.052 1257.42 608.99C1268.23 596.928 1273.63 579.84 1273.63 557.726V521.917C1273.63 499.803 1268.23 482.841 1257.42 471.03C1246.87 458.968 1232.92 452.937 1215.58 452.937Z" fill="white"/>
<path d="M1065.41 581.85C1065.41 600.446 1060.14 614.392 1049.58 623.69C1039.28 632.988 1022.57 637.637 999.45 637.637C976.331 637.637 959.494 632.485 948.94 622.182C938.637 611.879 933.485 598.435 933.485 581.85V455.199L912 451.806V446.906H980.603V451.806L959.117 455.199V581.85C959.117 613.261 976.205 629.093 1010.38 629.344C1043.3 629.344 1059.76 613.513 1059.76 581.85V461.23L1038.27 451.806V446.906H1087.65V451.806L1065.41 461.23V581.85Z" fill="white"/>
<path d="M865.99 498.547L849.028 452.937H810.203V624.444L831.689 627.836V632.737H763.463V627.836L784.572 624.444V452.937H746.501L728.408 498.547H722V446.906H873.152V498.547H865.99Z" fill="white"/>
<path d="M666.689 442H671.589V489.871H666.689L650.104 455.947C638.544 450.418 625.98 447.654 612.41 447.654C598.84 447.654 588.16 451.046 580.37 457.831C572.58 464.616 568.685 472.909 568.685 482.709C568.685 492.51 571.449 499.797 576.978 504.572C582.506 509.346 590.547 513.116 601.102 515.88L642.942 527.188C656.512 530.455 666.563 536.234 673.097 544.527C679.63 552.82 682.897 565.51 682.897 582.598C682.897 599.434 677.494 612.878 666.689 622.93C656.135 632.731 642.691 637.631 626.357 637.631C610.274 637.631 595.322 633.359 581.501 624.815L561.9 634.992H557V575.436H561.9L581.878 618.407C594.694 627.453 608.64 631.977 623.718 631.977C638.796 631.977 650.732 628.459 659.527 621.422C668.574 614.386 673.097 604.209 673.097 590.89C673.097 581.341 670.207 573.928 664.427 568.651C658.899 563.123 649.601 558.725 636.534 555.458L598.086 545.658C584.768 542.14 574.59 536.109 567.554 527.565C560.769 518.77 557.377 508.592 557.377 497.033C557.377 480.448 562.151 467.129 571.701 457.078C581.501 447.026 594.191 442 609.771 442C625.351 442 638.67 444.513 649.727 449.539L666.689 442Z" fill="white"/>
</svg>
